<?xml version="1.0" encoding="utf-8"?>
<!-- Generator: Adobe Illustrator 19.0.1, SVG Export Plug-In . SVG Version: 6.00 Build 0)  -->
<svg version="1.0" id="ebene1" xmlns="http://www.w3.org/2000/svg" xmlns:xlink="http://www.w3.org/1999/xlink" x="0px" y="0px"
	 width="60px" height="60px" viewBox="0 0 60 60" style="enable-background:new 0 0 60 60;" xml:space="preserve">
<g id="typ_x5F_dokument" fill="#ffffff">
	<path d="M54.413,10H48V2.052C48,0.947,47.104,0,46,0H5.815C4.711,0,4,0.947,4,2.052v46.865C4,50.021,4.711,52,5.815,52H12v5.817
		C12,58.921,12.896,60,14,60h40.413c1.104,0,1.538-0.621,1.538-1.725L56,11.641C56,10.537,55.517,10,54.413,10z M8,48V4h36v44H8z
		 M52,56H16v-4h30c1.104,0,2-1.979,2-3.083V14h4V56z"/>
	<path d="M14,12h20c1.104,0,2-0.896,2-2s-0.896-2-2-2H14c-1.104,0-2,0.896-2,2S12.896,12,14,12z"/>
	<path d="M14,26h12c1.104,0,2-0.896,2-2s-0.896-2-2-2H14c-1.104,0-2,0.896-2,2S12.896,26,14,26z"/>
	<path d="M36,30H14c-1.104,0-2,0.896-2,2s0.896,2,2,2h22c1.104,0,2-0.896,2-2S37.104,30,36,30z"/>
	<path d="M32,38H14c-1.104,0-2,0.896-2,2s0.896,2,2,2h18c1.104,0,2-0.896,2-2S33.104,38,32,38z"/>
</g>
</svg>
