<?xml version="1.0" encoding="UTF-8" standalone="no"?>
<svg
   xmlns:dc="http://purl.org/dc/elements/1.1/"
   xmlns:cc="http://creativecommons.org/ns#"
   xmlns:rdf="http://www.w3.org/1999/02/22-rdf-syntax-ns#"
   xmlns:svg="http://www.w3.org/2000/svg"
   xmlns="http://www.w3.org/2000/svg"
   xmlns:sodipodi="http://sodipodi.sourceforge.net/DTD/sodipodi-0.dtd"
   xmlns:inkscape="http://www.inkscape.org/namespaces/inkscape"
   version="1.1"
   id="Ebene_1"
   x="0px"
   y="0px"
   viewBox="0 0 56.7 56.7"
   style="enable-background:new 0 0 56.7 56.7;"
   xml:space="preserve"
   sodipodi:docname="typ_mobile_app_inverted.svg"
   inkscape:version="1.0.2 (1.0.2+r75+1)"><metadata
   id="metadata434"><rdf:RDF><cc:Work
       rdf:about=""><dc:format>image/svg+xml</dc:format><dc:type
         rdf:resource="http://purl.org/dc/dcmitype/StillImage" /><dc:title></dc:title></cc:Work></rdf:RDF></metadata><defs
   id="defs432" /><sodipodi:namedview
   pagecolor="#ffffff"
   bordercolor="#666666"
   borderopacity="1"
   objecttolerance="10"
   gridtolerance="10"
   guidetolerance="10"
   inkscape:pageopacity="0"
   inkscape:pageshadow="2"
   inkscape:window-width="1848"
   inkscape:window-height="1016"
   id="namedview430"
   showgrid="false"
   inkscape:zoom="15.202822"
   inkscape:cx="28.35"
   inkscape:cy="28.35"
   inkscape:window-x="1992"
   inkscape:window-y="27"
   inkscape:window-maximized="1"
   inkscape:current-layer="Ebene_1"
   inkscape:document-rotation="0" />
<g
   id="g427">
	<path
   d="M38.3,56.7h-20c-3.9,0-7.1-3.2-7.1-7.1V7.1c0-3.9,3.2-7.1,7.1-7.1h20c3.9,0,7.1,3.2,7.1,7.1v42.5   C45.4,53.5,42.2,56.7,38.3,56.7z M18.4,2.3c-2.6,0-4.8,2.1-4.8,4.8v42.5c0,2.6,2.1,4.8,4.8,4.8h20c2.6,0,4.8-2.1,4.8-4.8V7.1   c0-2.6-2.1-4.8-4.8-4.8H18.4z"
   id="path421"
   style="fill:#ffffff" />
	<circle
   cx="39"
   cy="6.7"
   r="1.7"
   id="circle423"
   style="fill:#ffffff" />
	<path
   d="M32.9,52.3h-9.2c-0.6,0-1.2-0.5-1.2-1.2s0.5-1.2,1.2-1.2h9.2c0.6,0,1.2,0.5,1.2,1.2S33.6,52.3,32.9,52.3z"
   id="path425"
   style="fill:#ffffff" />
</g>
</svg>
