<?xml version="1.0" encoding="utf-8"?>
<!-- Generator: Adobe Illustrator 19.0.1, SVG Export Plug-In . SVG Version: 6.00 Build 0)  -->
<svg version="1.0" id="ebene1" xmlns="http://www.w3.org/2000/svg" xmlns:xlink="http://www.w3.org/1999/xlink" x="0px" y="0px"
	 width="60px" height="60px" viewBox="0 0 60 60" style="enable-background:new 0 0 60 60;" xml:space="preserve">
<g id="typ_x5F_app">
	<path d="M59.697,25.969l-0.121-0.895l-4.592-3.05c-0.449-1.411-1.009-2.771-1.673-4.058l1.087-5.387l-0.547-0.718
		c-1.637-2.15-3.558-4.071-5.708-5.708l-0.718-0.547l-5.388,1.087c-1.285-0.663-2.645-1.223-4.057-1.673l-3.05-4.592l-0.895-0.121
		c-3.039-0.409-5.03-0.409-8.069,0L25.07,0.428L22.02,5.02c-1.412,0.449-2.772,1.009-4.057,1.673l-5.388-1.087l-0.718,0.547
		c-2.15,1.638-4.071,3.558-5.708,5.708l-0.547,0.718l1.087,5.387c-0.663,1.287-1.224,2.647-1.673,4.058l-4.592,3.05l-0.121,0.895
		c-0.205,1.52-0.3,2.802-0.3,4.035c0,1.231,0.095,2.513,0.3,4.035l0.121,0.895l4.592,3.05c0.449,1.41,1.009,2.769,1.673,4.057
		l-1.087,5.386l0.547,0.719c1.635,2.148,3.556,4.069,5.709,5.709l0.718,0.547l5.387-1.087c1.286,0.663,2.646,1.224,4.058,1.673
		l3.049,4.591l0.895,0.121C27.49,59.905,28.772,60,30,60s2.51-0.095,4.035-0.301l0.895-0.121l3.049-4.591
		c1.412-0.449,2.772-1.009,4.058-1.673l5.387,1.087l0.718-0.547c2.153-1.64,4.074-3.561,5.709-5.709l0.547-0.719l-1.087-5.386
		c0.663-1.288,1.224-2.647,1.673-4.057l4.592-3.05l0.121-0.895c0.205-1.522,0.3-2.803,0.3-4.035
		C59.997,28.77,59.901,27.488,59.697,25.969z M55.851,32.617l-4.283,2.844l-0.203,0.705c-0.468,1.624-1.106,3.172-1.897,4.6
		l-0.356,0.642l1.013,5.018c-1.107,1.354-2.348,2.595-3.704,3.704l-5.019-1.013l-0.642,0.357c-1.426,0.79-2.973,1.428-4.599,1.896
		l-0.704,0.203l-2.845,4.283c-1.923,0.21-3.304,0.21-5.227,0l-2.845-4.283l-0.704-0.203c-1.626-0.468-3.173-1.106-4.599-1.896
		l-0.642-0.357l-5.019,1.013c-1.356-1.109-2.597-2.35-3.704-3.704l1.013-5.018l-0.356-0.642c-0.791-1.428-1.429-2.976-1.897-4.6
		l-0.203-0.705l-4.283-2.844c-0.106-0.959-0.156-1.805-0.156-2.614c0-0.81,0.05-1.655,0.156-2.614l4.283-2.844l0.203-0.705
		c0.468-1.626,1.106-3.173,1.897-4.601l0.356-0.642L9.874,13.58c1.108-1.355,2.348-2.596,3.703-3.703l5.02,1.013l0.642-0.357
		c1.425-0.789,2.972-1.428,4.6-1.897l0.704-0.203l2.844-4.282c1.917-0.212,3.31-0.212,5.227,0l2.844,4.282l0.704,0.203
		c1.628,0.469,3.175,1.108,4.6,1.897l0.642,0.357l5.02-1.013c1.355,1.107,2.595,2.348,3.703,3.703l-1.013,5.018l0.356,0.642
		c0.791,1.428,1.429,2.975,1.897,4.601l0.203,0.705l4.283,2.844c0.106,0.958,0.156,1.804,0.156,2.614
		C56.007,30.812,55.957,31.658,55.851,32.617z"/>
	<path d="M30,17.026c-7.155,0-12.976,5.821-12.976,12.977c0,7.155,5.821,12.976,12.976,12.976s12.976-5.821,12.976-12.976
		C42.976,22.848,37.155,17.026,30,17.026z M30,38.99c-4.955,0-8.986-4.031-8.986-8.986c0-4.955,4.031-8.987,8.986-8.987
		s8.986,4.032,8.986,8.987C38.986,34.959,34.955,38.99,30,38.99z"/>
</g>
</svg>
