<?xml version="1.0" encoding="utf-8"?>
<!-- Generator: Adobe Illustrator 25.0.0, SVG Export Plug-In . SVG Version: 6.00 Build 0)  -->
<svg version="1.1" id="Ebene_1" xmlns="http://www.w3.org/2000/svg" xmlns:xlink="http://www.w3.org/1999/xlink" x="0px" y="0px"
	 viewBox="0 0 56.7 56.7" style="enable-background:new 0 0 56.7 56.7;" xml:space="preserve">
<path d="M8.8,37.1c-4.8,0-8.8-3.9-8.8-8.8s3.9-8.8,8.8-8.8s8.8,3.9,8.8,8.8S13.6,37.1,8.8,37.1z M8.8,22c-3.5,0-6.3,2.8-6.3,6.3
	s2.8,6.3,6.3,6.3s6.3-2.8,6.3-6.3S12.3,22,8.8,22z"/>
<path d="M28.5,37.1c-4.8,0-8.8-3.9-8.8-8.8s3.9-8.8,8.8-8.8s8.8,3.9,8.8,8.8S33.3,37.1,28.5,37.1z M28.5,22c-3.5,0-6.3,2.8-6.3,6.3
	s2.8,6.3,6.3,6.3s6.3-2.8,6.3-6.3S32,22,28.5,22z"/>
<path d="M47.9,37.1c-4.8,0-8.8-3.9-8.8-8.8s3.9-8.8,8.8-8.8s8.8,3.9,8.8,8.8S52.8,37.1,47.9,37.1z M47.9,22c-3.5,0-6.3,2.8-6.3,6.3
	s2.8,6.3,6.3,6.3s6.3-2.8,6.3-6.3S51.4,22,47.9,22z"/>
</svg>
