<?xml version="1.0" encoding="UTF-8" standalone="no"?>
<svg
   xmlns:dc="http://purl.org/dc/elements/1.1/"
   xmlns:cc="http://creativecommons.org/ns#"
   xmlns:rdf="http://www.w3.org/1999/02/22-rdf-syntax-ns#"
   xmlns:svg="http://www.w3.org/2000/svg"
   xmlns="http://www.w3.org/2000/svg"
   xmlns:sodipodi="http://sodipodi.sourceforge.net/DTD/sodipodi-0.dtd"
   xmlns:inkscape="http://www.inkscape.org/namespaces/inkscape"
   version="1.1"
   id="Ebene_1"
   x="0px"
   y="0px"
   viewBox="0 0 56.7 56.7"
   style="enable-background:new 0 0 56.7 56.7;"
   xml:space="preserve"
   sodipodi:docname="typ_concept_blue.svg"
   inkscape:version="1.0.2 (1.0.2+r75+1)"><metadata
   id="metadata3581"><rdf:RDF><cc:Work
       rdf:about=""><dc:format>image/svg+xml</dc:format><dc:type
         rdf:resource="http://purl.org/dc/dcmitype/StillImage" /><dc:title></dc:title></cc:Work></rdf:RDF></metadata><defs
   id="defs3579" /><sodipodi:namedview
   pagecolor="#ffffff"
   bordercolor="#666666"
   borderopacity="1"
   objecttolerance="10"
   gridtolerance="10"
   guidetolerance="10"
   inkscape:pageopacity="0"
   inkscape:pageshadow="2"
   inkscape:window-width="1848"
   inkscape:window-height="1016"
   id="namedview3577"
   showgrid="false"
   inkscape:zoom="15.202822"
   inkscape:cx="28.35"
   inkscape:cy="28.35"
   inkscape:window-x="1992"
   inkscape:window-y="27"
   inkscape:window-maximized="1"
   inkscape:current-layer="Ebene_1" />
<g
   id="g3574">
	<path
   d="M27.6,0h-16c-0.7,0-1.2,0.5-1.2,1.2v54.3c0,0.7,0.5,1.2,1.2,1.2h16c0.7,0,1.2-0.5,1.2-1.2V1.2C28.8,0.5,28.3,0,27.6,0z    M12.8,54.3V2.4h13.7v3.4h-5.8c-0.7,0-1.2,0.5-1.2,1.2s0.5,1.2,1.2,1.2h5.8v4.7h-5.8c-0.7,0-1.2,0.5-1.2,1.2s0.5,1.2,1.2,1.2h5.8   V20h-5.8c-0.7,0-1.2,0.5-1.2,1.2c0,0.7,0.5,1.2,1.2,1.2h5.8v4.7h-5.8c-0.7,0-1.2,0.5-1.2,1.2c0,0.7,0.5,1.2,1.2,1.2h5.8v4.7h-5.8   c-0.7,0-1.2,0.5-1.2,1.2c0,0.7,0.5,1.2,1.2,1.2h5.8v4.7h-5.8c-0.7,0-1.2,0.5-1.2,1.2c0,0.7,0.5,1.2,1.2,1.2h5.8v4.7h-5.8   c-0.7,0-1.2,0.5-1.2,1.2c0,0.7,0.5,1.2,1.2,1.2h5.8v3.4H12.8z"
   id="path3570"
   style="fill:#002d62;fill-opacity:1" />
	<path
   d="M46.2,12.6L41.4,0.7c-0.4-0.9-1.8-0.9-2.2,0l-4.8,11.9c-0.1,0.1-0.1,0.3-0.1,0.4v42.5c0,0.7,0.5,1.2,1.2,1.2h9.6   c0.7,0,1.2-0.5,1.2-1.2V13C46.3,12.9,46.3,12.7,46.2,12.6z M43.9,14.2V47h-7.2V14.2H43.9z M37.3,11.9l1.6-4   c0.4,0.3,0.9,0.5,1.4,0.5c0.5,0,1-0.2,1.4-0.5l1.6,4H37.3z M36.7,54.3v-5h7.2v5H36.7z"
   id="path3572"
   style="fill:#002d62;fill-opacity:1" />
</g>
</svg>
