<?xml version="1.0" encoding="utf-8"?>
<!-- Generator: Adobe Illustrator 25.0.0, SVG Export Plug-In . SVG Version: 6.00 Build 0)  -->
<svg version="1.1" id="Ebene_1" xmlns="http://www.w3.org/2000/svg" xmlns:xlink="http://www.w3.org/1999/xlink" x="0px" y="0px"
	 viewBox="0 0 56.7 56.7" style="enable-background:new 0 0 56.7 56.7;" xml:space="preserve">
<g>
	<path d="M38.3,56.7h-20c-3.9,0-7.1-3.2-7.1-7.1V7.1c0-3.9,3.2-7.1,7.1-7.1h20c3.9,0,7.1,3.2,7.1,7.1v42.5
		C45.4,53.5,42.2,56.7,38.3,56.7z M18.4,2.3c-2.6,0-4.8,2.1-4.8,4.8v42.5c0,2.6,2.1,4.8,4.8,4.8h20c2.6,0,4.8-2.1,4.8-4.8V7.1
		c0-2.6-2.1-4.8-4.8-4.8H18.4z"/>
	<circle cx="39" cy="6.7" r="1.7"/>
	<path d="M32.9,52.3h-9.2c-0.6,0-1.2-0.5-1.2-1.2s0.5-1.2,1.2-1.2h9.2c0.6,0,1.2,0.5,1.2,1.2S33.6,52.3,32.9,52.3z"/>
</g>
</svg>
