<?xml version="1.0" encoding="utf-8"?>
<!-- Generator: Adobe Illustrator 19.0.1, SVG Export Plug-In . SVG Version: 6.00 Build 0)  -->
<svg version="1.0" id="ebene1" xmlns="http://www.w3.org/2000/svg" xmlns:xlink="http://www.w3.org/1999/xlink" x="0px" y="0px"
	 width="60px" height="60px" viewBox="0 0 60 60" style="enable-background:new 0 0 60 60;" xml:space="preserve">
<g id="typ_x5F_blog">
	<path d="M46,32.306c-1.104,0-2,0.895-2,2V56H4V16h26.816c1.104,0,2-0.896,2-2c0-1.104-0.895-2-2-2H1.998
		C0.893,12,0,12.921,0,14.025v43.949C0,59.078,0.893,60,1.998,60h43.949C47.051,60,48,59.078,48,57.974V34.305
		C48,33.201,47.104,32.306,46,32.306z"/>
	<path d="M58.108,1.52c-1.08-0.976-2.328-1.493-3.609-1.493c-1.815,0-3.304,1.025-4.114,2.011L28.686,29.422
		c-0.143,0.18-0.253,0.383-0.327,0.601l-3.179,9.386c-0.268,0.791-0.016,1.665,0.632,2.192c0.365,0.298,0.812,0.449,1.263,0.449
		c0.349,0,0.698-0.091,1.012-0.274l8.271-4.851c0.214-0.126,0.402-0.289,0.556-0.483L58.588,9.086
		C60.63,6.601,60.441,3.631,58.108,1.52z M55.476,6.575L34.01,33.665l-3.321,1.947l1.348-3.978L53.497,4.55
		c0.141-0.171,0.57-0.523,1.002-0.523c0.277,0,0.589,0.155,0.926,0.46C55.979,4.988,56.368,5.489,55.476,6.575z"/>
</g>
</svg>
