<?xml version="1.0" encoding="utf-8"?>
<!-- Generator: Adobe Illustrator 19.1.0, SVG Export Plug-In . SVG Version: 6.00 Build 0)  -->
<svg version="1.1" id="ebene1" xmlns="http://www.w3.org/2000/svg" xmlns:xlink="http://www.w3.org/1999/xlink" x="0px" y="0px"
	 width="60px" height="60px" viewBox="-1469 1471 60 60" style="enable-background:new -1469 1471 60 60;" xml:space="preserve">
<g id="typ_x5F_article" fill="#ffffff">
	<g>
		<path d="M-1411,1471h-48c-1.1,0-2,0.9-2,2v10h-6c-1.1,0-2,0.9-2,2v40c0,3.3,2.7,6,6,6c0,0,0,0,0,0h48c3.3,0,6-2.7,6-6l0-52
			C-1409,1471.9-1409.9,1471-1411,1471z M-1461,1521l0,4c0,1.1-0.9,2-2,2s-2-0.9-2-2v-38h4V1521z M-1413,1525c0,1.1-0.9,2-2,2h-42.3
			c0.2,0,0.3-1.3,0.3-2l0-50h44L-1413,1525z"/>
	</g>
	<g>
		<path d="M-1433,1481c0-1.1-0.9-2-2-2h-16c-1.1,0-2,0.9-2,2v16c0,1.1,0.9,2,2,2h16c1.1,0,2-0.9,2-2V1481z M-1449,1483h12v12h-12
			V1483z"/>
	</g>
	<g>
		<path d="M-1451,1509h32c1.1,0,2-0.9,2-2s-0.9-2-2-2h-32c-1.1,0-2,0.9-2,2S-1452.1,1509-1451,1509z"/>
	</g>
	<g>
		<path d="M-1451,1515h28c1.1,0,2-0.9,2-2s-0.9-2-2-2h-28c-1.1,0-2,0.9-2,2S-1452.1,1515-1451,1515z"/>
	</g>
	<g>
		<path d="M-1451,1521h30c1.1,0,2-0.9,2-2s-0.9-2-2-2h-30c-1.1,0-2,0.9-2,2S-1452.1,1521-1451,1521z"/>
	</g>
	<g>
		<path d="M-1429,1483h12c1.1,0,2-0.9,2-2s-0.9-2-2-2h-12c-1.1,0-2,0.9-2,2S-1430.1,1483-1429,1483z"/>
	</g>
	<g>
		<path d="M-1429,1489h12c1.1,0,2-0.9,2-2s-0.9-2-2-2h-12c-1.1,0-2,0.9-2,2S-1430.1,1489-1429,1489z"/>
	</g>
</g>
</svg>
