<?xml version="1.0" encoding="UTF-8" standalone="no"?>
<svg
   xmlns:dc="http://purl.org/dc/elements/1.1/"
   xmlns:cc="http://creativecommons.org/ns#"
   xmlns:rdf="http://www.w3.org/1999/02/22-rdf-syntax-ns#"
   xmlns:svg="http://www.w3.org/2000/svg"
   xmlns="http://www.w3.org/2000/svg"
   xmlns:sodipodi="http://sodipodi.sourceforge.net/DTD/sodipodi-0.dtd"
   xmlns:inkscape="http://www.inkscape.org/namespaces/inkscape"
   version="1.1"
   id="Ebene_1"
   x="0px"
   y="0px"
   viewBox="0 0 56.7 56.7"
   style="enable-background:new 0 0 56.7 56.7;"
   xml:space="preserve"
   sodipodi:docname="typ_other_blue.svg"
   inkscape:version="1.0.2 (1.0.2+r75+1)"><metadata
   id="metadata2295"><rdf:RDF><cc:Work
       rdf:about=""><dc:format>image/svg+xml</dc:format><dc:type
         rdf:resource="http://purl.org/dc/dcmitype/StillImage" /><dc:title></dc:title></cc:Work></rdf:RDF></metadata><defs
   id="defs2293" /><sodipodi:namedview
   pagecolor="#ffffff"
   bordercolor="#666666"
   borderopacity="1"
   objecttolerance="10"
   gridtolerance="10"
   guidetolerance="10"
   inkscape:pageopacity="0"
   inkscape:pageshadow="2"
   inkscape:window-width="1848"
   inkscape:window-height="1016"
   id="namedview2291"
   showgrid="false"
   inkscape:zoom="15.202822"
   inkscape:cx="28.35"
   inkscape:cy="28.35"
   inkscape:window-x="1992"
   inkscape:window-y="27"
   inkscape:window-maximized="1"
   inkscape:current-layer="Ebene_1" />
<path
   d="M8.8,37.1c-4.8,0-8.8-3.9-8.8-8.8s3.9-8.8,8.8-8.8s8.8,3.9,8.8,8.8S13.6,37.1,8.8,37.1z M8.8,22c-3.5,0-6.3,2.8-6.3,6.3  s2.8,6.3,6.3,6.3s6.3-2.8,6.3-6.3S12.3,22,8.8,22z"
   id="path2284"
   style="fill:#002d62;fill-opacity:1" />
<path
   d="M28.5,37.1c-4.8,0-8.8-3.9-8.8-8.8s3.9-8.8,8.8-8.8s8.8,3.9,8.8,8.8S33.3,37.1,28.5,37.1z M28.5,22c-3.5,0-6.3,2.8-6.3,6.3  s2.8,6.3,6.3,6.3s6.3-2.8,6.3-6.3S32,22,28.5,22z"
   id="path2286"
   style="fill:#002d62;fill-opacity:1" />
<path
   d="M47.9,37.1c-4.8,0-8.8-3.9-8.8-8.8s3.9-8.8,8.8-8.8s8.8,3.9,8.8,8.8S52.8,37.1,47.9,37.1z M47.9,22c-3.5,0-6.3,2.8-6.3,6.3  s2.8,6.3,6.3,6.3s6.3-2.8,6.3-6.3S51.4,22,47.9,22z"
   id="path2288"
   style="fill:#002d62;fill-opacity:1" />
</svg>
