<?xml version="1.0" encoding="utf-8"?>
<!-- Generator: Adobe Illustrator 25.0.0, SVG Export Plug-In . SVG Version: 6.00 Build 0)  -->
<svg version="1.1" id="Ebene_1" xmlns="http://www.w3.org/2000/svg" xmlns:xlink="http://www.w3.org/1999/xlink" x="0px" y="0px"
	 viewBox="0 0 56.7 56.7" style="enable-background:new 0 0 56.7 56.7;" xml:space="preserve">
<g>
	<path d="M56.7,25.4c0-8-10.1-12.9-27-13.1c-0.1,0-0.3,0-0.4,0c-0.1,0-0.1,0-0.2,0c-0.2,0-0.4,0-0.6,0c-15.5,0-28.3,10.6-28.3,16
		c0,5.3,12.3,15.6,27.4,15.9c0.6,0.1,1.1,0.1,1.7,0.1c0.9,0,1.7-0.1,2.5-0.2C46,42.8,56.7,33.5,56.7,25.4z M31.6,41.7
		c-1,0.1-2.1,0.2-3.2,0.2c-0.2,0-0.4,0-0.7,0c-6.8-0.7-12.2-6.5-12.2-13.6c0-7.5,6-13.5,13.5-13.6c0.2,0,0.3,0,0.5,0
		c7.4,0.2,13.3,6.2,13.3,13.6C42.8,35,38,40.6,31.6,41.7z M2.5,28.3c0-2.9,6.8-9.4,16.4-12.2c-3.5,2.9-5.7,7.3-5.7,12.2
		c0,4.9,2.2,9.2,5.6,12.1C9.2,37.6,2.5,31.2,2.5,28.3z M40.5,39.7c2.9-2.9,4.7-6.9,4.7-11.4c0-5.3-2.6-10-6.6-12.9
		c8.7,1.2,15.7,4.3,15.7,10.1C54.3,30.6,48.7,36.6,40.5,39.7z"/>
	<circle cx="29.2" cy="28.3" r="5.5"/>
</g>
</svg>
