<?xml version="1.0" encoding="UTF-8" standalone="no"?>
<svg
   xmlns:dc="http://purl.org/dc/elements/1.1/"
   xmlns:cc="http://creativecommons.org/ns#"
   xmlns:rdf="http://www.w3.org/1999/02/22-rdf-syntax-ns#"
   xmlns:svg="http://www.w3.org/2000/svg"
   xmlns="http://www.w3.org/2000/svg"
   xmlns:sodipodi="http://sodipodi.sourceforge.net/DTD/sodipodi-0.dtd"
   xmlns:inkscape="http://www.inkscape.org/namespaces/inkscape"
   version="1.1"
   id="Ebene_1"
   x="0px"
   y="0px"
   viewBox="0 0 56.7 56.7"
   style="enable-background:new 0 0 56.7 56.7;"
   xml:space="preserve"
   sodipodi:docname="typ_tool_blue.svg"
   inkscape:version="1.0.2 (1.0.2+r75+1)"><metadata
   id="metadata1001"><rdf:RDF><cc:Work
       rdf:about=""><dc:format>image/svg+xml</dc:format><dc:type
         rdf:resource="http://purl.org/dc/dcmitype/StillImage" /><dc:title></dc:title></cc:Work></rdf:RDF></metadata><defs
   id="defs999" /><sodipodi:namedview
   pagecolor="#ffffff"
   bordercolor="#666666"
   borderopacity="1"
   objecttolerance="10"
   gridtolerance="10"
   guidetolerance="10"
   inkscape:pageopacity="0"
   inkscape:pageshadow="2"
   inkscape:window-width="1848"
   inkscape:window-height="1016"
   id="namedview997"
   showgrid="false"
   inkscape:zoom="15.202822"
   inkscape:cx="28.35"
   inkscape:cy="28.35"
   inkscape:window-x="1992"
   inkscape:window-y="27"
   inkscape:window-maximized="1"
   inkscape:current-layer="Ebene_1" />
<path
   d="M45.4,2.6c0.6,0,1.3,0.1,1.9,0.2l-4.2,4.2c-1.3,1.3-1.3,3.5,0,4.8l1.7,1.7c0.7,0.7,1.5,1,2.4,1c0.9,0,1.8-0.3,2.4-1l4.2-4.2  c0.6,2.8-0.1,5.8-2.3,8c-1.7,1.7-3.9,2.5-6.1,2.5c-1.2,0-2.3-0.2-3.4-0.7L19.2,42c1.4,3.2,0.8,6.9-1.8,9.5c-1.7,1.7-3.9,2.5-6.1,2.5  c-0.6,0-1.3-0.1-1.9-0.2l4.2-4.2c1.3-1.3,1.3-3.5,0-4.8l-1.7-1.7c-0.7-0.7-1.5-1-2.4-1c-0.9,0-1.8,0.3-2.4,1l-4.2,4.2  c-0.6-2.8,0.1-5.8,2.3-8c1.7-1.7,3.9-2.5,6.1-2.5c1.2,0,2.3,0.2,3.4,0.7l22.8-22.8c-1.4-3.2-0.8-6.9,1.8-9.5  C41,3.5,43.2,2.6,45.4,2.6 M45.4,0c-3,0-5.8,1.2-8,3.3c-2.8,2.8-3.9,6.9-3,10.7L14,34.5c-0.9-0.2-1.8-0.3-2.7-0.3  c-3,0-5.8,1.2-8,3.3c-2.7,2.7-3.9,6.6-3,10.4c0.2,0.9,0.9,1.7,1.8,2c0.2,0.1,0.5,0.1,0.7,0.1c0.7,0,1.4-0.3,1.9-0.8L8.9,45  c0.2-0.2,0.4-0.2,0.5-0.2c0.1,0,0.4,0,0.5,0.2l1.7,1.7c0.3,0.3,0.3,0.8,0,1.1L7.5,52c-0.7,0.7-0.9,1.7-0.7,2.6c0.3,0.9,1,1.6,2,1.8  c0.8,0.2,1.6,0.3,2.5,0.3c3,0,5.8-1.2,8-3.3c2.8-2.8,3.9-6.9,3-10.7l20.5-20.5c0.9,0.2,1.8,0.3,2.7,0.3c3,0,5.8-1.2,8-3.3  c2.7-2.7,3.9-6.6,3-10.4c-0.2-0.9-0.9-1.7-1.8-2c-0.2-0.1-0.5-0.1-0.7-0.1c-0.7,0-1.4,0.3-1.9,0.8l-4.2,4.2  c-0.2,0.2-0.4,0.2-0.5,0.2s-0.4,0-0.5-0.2L45,10c-0.3-0.3-0.3-0.8,0-1.1l4.2-4.2C49.9,4,50.1,3,49.8,2.1c-0.3-0.9-1-1.6-2-1.8  C47.1,0.1,46.2,0,45.4,0L45.4,0z"
   id="path994"
   style="fill:#002d62;fill-opacity:1" />
</svg>
