<?xml version="1.0" encoding="UTF-8" standalone="no"?>
<svg
   xmlns:dc="http://purl.org/dc/elements/1.1/"
   xmlns:cc="http://creativecommons.org/ns#"
   xmlns:rdf="http://www.w3.org/1999/02/22-rdf-syntax-ns#"
   xmlns:svg="http://www.w3.org/2000/svg"
   xmlns="http://www.w3.org/2000/svg"
   xmlns:sodipodi="http://sodipodi.sourceforge.net/DTD/sodipodi-0.dtd"
   xmlns:inkscape="http://www.inkscape.org/namespaces/inkscape"
   version="1.1"
   id="Ebene_1"
   x="0px"
   y="0px"
   viewBox="0 0 56.7 56.7"
   style="enable-background:new 0 0 56.7 56.7;"
   xml:space="preserve"
   sodipodi:docname="typ_website_inverted.svg"
   inkscape:version="1.0.2 (1.0.2+r75+1)"><metadata
   id="metadata120"><rdf:RDF><cc:Work
       rdf:about=""><dc:format>image/svg+xml</dc:format><dc:type
         rdf:resource="http://purl.org/dc/dcmitype/StillImage" /><dc:title></dc:title></cc:Work></rdf:RDF></metadata><defs
   id="defs118" /><sodipodi:namedview
   pagecolor="#ffffff"
   bordercolor="#666666"
   borderopacity="1"
   objecttolerance="10"
   gridtolerance="10"
   guidetolerance="10"
   inkscape:pageopacity="0"
   inkscape:pageshadow="2"
   inkscape:window-width="1848"
   inkscape:window-height="1016"
   id="namedview116"
   showgrid="false"
   inkscape:zoom="15.026455"
   inkscape:cx="28.35"
   inkscape:cy="28.35"
   inkscape:window-x="1992"
   inkscape:window-y="27"
   inkscape:window-maximized="1"
   inkscape:current-layer="Ebene_1"
   inkscape:document-rotation="0" />
<style
   type="text/css"
   id="style93"><![CDATA[
.st0 {
  fill:#fdfdfd;
}
]]></style>
<g
   id="g113">
	<path
   class="st0"
   d="M55.4,9H1.1c-0.7,0-1.2,0.5-1.2,1.2v36.5c0,0.7,0.5,1.2,1.2,1.2h54.3c0.7,0,1.2-0.5,1.2-1.2V10.2   C56.6,9.5,56.1,9,55.4,9z M54.2,45.5H2.3V11.4h51.9V45.5z"
   id="path95" />
	<path
   class="st0"
   d="M16.2,42.8H41c0.7,0,1.2-0.5,1.2-1.2c0-0.7-0.5-1.2-1.2-1.2H16.2c-0.7,0-1.2,0.5-1.2,1.2   C15,42.3,15.5,42.8,16.2,42.8z"
   id="path97" />
	<path
   class="st0"
   d="M41,31H28.7c-0.7,0-1.2,0.5-1.2,1.2c0,0.7,0.5,1.2,1.2,1.2H41c0.7,0,1.2-0.5,1.2-1.2C42.1,31.5,41.6,31,41,31z   "
   id="path99" />
	<path
   class="st0"
   d="M41,35.7H28.7c-0.7,0-1.2,0.5-1.2,1.2s0.5,1.2,1.2,1.2H41c0.7,0,1.2-0.5,1.2-1.2S41.6,35.7,41,35.7z"
   id="path101" />
	<path
   class="st0"
   d="M10,20.7c2.8,0,5.1-1.5,5.1-3.4c0-1.9-2.3-3.4-5.1-3.4c-2.8,0-5.1,1.5-5.1,3.4C4.9,19.2,7.2,20.7,10,20.7z"
   id="path103" />
	<path
   class="st0"
   d="M18.6,18.4h6c0.7,0,1.2-0.5,1.2-1.2s-0.5-1.2-1.2-1.2h-6c-0.7,0-1.2,0.5-1.2,1.2S17.9,18.4,18.6,18.4z"
   id="path105" />
	<path
   class="st0"
   d="M28.1,18.4h6c0.7,0,1.2-0.5,1.2-1.2s-0.5-1.2-1.2-1.2h-6c-0.7,0-1.2,0.5-1.2,1.2S27.4,18.4,28.1,18.4z"
   id="path107" />
	<path
   class="st0"
   d="M37.5,18.4h6c0.7,0,1.2-0.5,1.2-1.2s-0.5-1.2-1.2-1.2h-6c-0.7,0-1.2,0.5-1.2,1.2S36.9,18.4,37.5,18.4z"
   id="path109" />
	<rect
   x="15.6"
   y="30.9"
   class="st0"
   width="10.1"
   height="7.3"
   id="rect111" />
</g>
</svg>
