<?xml version="1.0" encoding="UTF-8" standalone="no"?>
<svg
   xmlns:dc="http://purl.org/dc/elements/1.1/"
   xmlns:cc="http://creativecommons.org/ns#"
   xmlns:rdf="http://www.w3.org/1999/02/22-rdf-syntax-ns#"
   xmlns:svg="http://www.w3.org/2000/svg"
   xmlns="http://www.w3.org/2000/svg"
   xmlns:sodipodi="http://sodipodi.sourceforge.net/DTD/sodipodi-0.dtd"
   xmlns:inkscape="http://www.inkscape.org/namespaces/inkscape"
   version="1.1"
   id="Ebene_1"
   x="0px"
   y="0px"
   viewBox="0 0 56.7 56.7"
   style="enable-background:new 0 0 56.7 56.7;"
   xml:space="preserve"
   sodipodi:docname="typ_visualization_blue.svg"
   inkscape:version="1.0.2 (1.0.2+r75+1)"><metadata
   id="metadata911"><rdf:RDF><cc:Work
       rdf:about=""><dc:format>image/svg+xml</dc:format><dc:type
         rdf:resource="http://purl.org/dc/dcmitype/StillImage" /><dc:title></dc:title></cc:Work></rdf:RDF></metadata><defs
   id="defs909" /><sodipodi:namedview
   pagecolor="#ffffff"
   bordercolor="#666666"
   borderopacity="1"
   objecttolerance="10"
   gridtolerance="10"
   guidetolerance="10"
   inkscape:pageopacity="0"
   inkscape:pageshadow="2"
   inkscape:window-width="1848"
   inkscape:window-height="1016"
   id="namedview907"
   showgrid="false"
   inkscape:zoom="14.673721"
   inkscape:cx="28.35"
   inkscape:cy="28.35"
   inkscape:window-x="1992"
   inkscape:window-y="27"
   inkscape:window-maximized="1"
   inkscape:current-layer="Ebene_1" />
<g
   id="g904">
	<path
   d="M56.7,25.4c0-8-10.1-12.9-27-13.1c-0.1,0-0.3,0-0.4,0c-0.1,0-0.1,0-0.2,0c-0.2,0-0.4,0-0.6,0c-15.5,0-28.3,10.6-28.3,16   c0,5.3,12.3,15.6,27.4,15.9c0.6,0.1,1.1,0.1,1.7,0.1c0.9,0,1.7-0.1,2.5-0.2C46,42.8,56.7,33.5,56.7,25.4z M31.6,41.7   c-1,0.1-2.1,0.2-3.2,0.2c-0.2,0-0.4,0-0.7,0c-6.8-0.7-12.2-6.5-12.2-13.6c0-7.5,6-13.5,13.5-13.6c0.2,0,0.3,0,0.5,0   c7.4,0.2,13.3,6.2,13.3,13.6C42.8,35,38,40.6,31.6,41.7z M2.5,28.3c0-2.9,6.8-9.4,16.4-12.2c-3.5,2.9-5.7,7.3-5.7,12.2   c0,4.9,2.2,9.2,5.6,12.1C9.2,37.6,2.5,31.2,2.5,28.3z M40.5,39.7c2.9-2.9,4.7-6.9,4.7-11.4c0-5.3-2.6-10-6.6-12.9   c8.7,1.2,15.7,4.3,15.7,10.1C54.3,30.6,48.7,36.6,40.5,39.7z"
   id="path900"
   style="fill:#002d62;fill-opacity:1" />
	<circle
   cx="29.2"
   cy="28.3"
   r="5.5"
   id="circle902"
   style="fill:#002d62;fill-opacity:1" />
</g>
</svg>
