<?xml version="1.0" encoding="utf-8"?>
<!-- Generator: Adobe Illustrator 25.0.0, SVG Export Plug-In . SVG Version: 6.00 Build 0)  -->
<svg version="1.1" id="Ebene_1" xmlns="http://www.w3.org/2000/svg" xmlns:xlink="http://www.w3.org/1999/xlink" x="0px" y="0px"
	 viewBox="0 0 56.7 56.7" style="enable-background:new 0 0 56.7 56.7;" xml:space="preserve">
<style type="text/css">
	.st0{fill:#020202;}
</style>
<g>
	<path class="st0" d="M55.4,9H1.1c-0.7,0-1.2,0.5-1.2,1.2v36.5c0,0.7,0.5,1.2,1.2,1.2h54.3c0.7,0,1.2-0.5,1.2-1.2V10.2
		C56.6,9.5,56.1,9,55.4,9z M54.2,45.5H2.3V11.4h51.9V45.5z"/>
	<path class="st0" d="M16.2,42.8H41c0.7,0,1.2-0.5,1.2-1.2c0-0.7-0.5-1.2-1.2-1.2H16.2c-0.7,0-1.2,0.5-1.2,1.2
		C15,42.3,15.5,42.8,16.2,42.8z"/>
	<path class="st0" d="M41,31H28.7c-0.7,0-1.2,0.5-1.2,1.2c0,0.7,0.5,1.2,1.2,1.2H41c0.7,0,1.2-0.5,1.2-1.2C42.1,31.5,41.6,31,41,31z
		"/>
	<path class="st0" d="M41,35.7H28.7c-0.7,0-1.2,0.5-1.2,1.2s0.5,1.2,1.2,1.2H41c0.7,0,1.2-0.5,1.2-1.2S41.6,35.7,41,35.7z"/>
	<path class="st0" d="M10,20.7c2.8,0,5.1-1.5,5.1-3.4c0-1.9-2.3-3.4-5.1-3.4c-2.8,0-5.1,1.5-5.1,3.4C4.9,19.2,7.2,20.7,10,20.7z"/>
	<path class="st0" d="M18.6,18.4h6c0.7,0,1.2-0.5,1.2-1.2s-0.5-1.2-1.2-1.2h-6c-0.7,0-1.2,0.5-1.2,1.2S17.9,18.4,18.6,18.4z"/>
	<path class="st0" d="M28.1,18.4h6c0.7,0,1.2-0.5,1.2-1.2s-0.5-1.2-1.2-1.2h-6c-0.7,0-1.2,0.5-1.2,1.2S27.4,18.4,28.1,18.4z"/>
	<path class="st0" d="M37.5,18.4h6c0.7,0,1.2-0.5,1.2-1.2s-0.5-1.2-1.2-1.2h-6c-0.7,0-1.2,0.5-1.2,1.2S36.9,18.4,37.5,18.4z"/>
	<rect x="15.6" y="30.9" class="st0" width="10.1" height="7.3"/>
</g>
</svg>
