<?xml version="1.0" encoding="utf-8"?>
<!-- Generator: Adobe Illustrator 25.0.0, SVG Export Plug-In . SVG Version: 6.00 Build 0)  -->
<svg version="1.1" id="Ebene_1" xmlns="http://www.w3.org/2000/svg" xmlns:xlink="http://www.w3.org/1999/xlink" x="0px" y="0px"
	 viewBox="0 0 56.7 56.7" style="enable-background:new 0 0 56.7 56.7;" xml:space="preserve">
<g>
	<path d="M27.6,0h-16c-0.7,0-1.2,0.5-1.2,1.2v54.3c0,0.7,0.5,1.2,1.2,1.2h16c0.7,0,1.2-0.5,1.2-1.2V1.2C28.8,0.5,28.3,0,27.6,0z
		 M12.8,54.3V2.4h13.7v3.4h-5.8c-0.7,0-1.2,0.5-1.2,1.2s0.5,1.2,1.2,1.2h5.8v4.7h-5.8c-0.7,0-1.2,0.5-1.2,1.2s0.5,1.2,1.2,1.2h5.8
		V20h-5.8c-0.7,0-1.2,0.5-1.2,1.2c0,0.7,0.5,1.2,1.2,1.2h5.8v4.7h-5.8c-0.7,0-1.2,0.5-1.2,1.2c0,0.7,0.5,1.2,1.2,1.2h5.8v4.7h-5.8
		c-0.7,0-1.2,0.5-1.2,1.2c0,0.7,0.5,1.2,1.2,1.2h5.8v4.7h-5.8c-0.7,0-1.2,0.5-1.2,1.2c0,0.7,0.5,1.2,1.2,1.2h5.8v4.7h-5.8
		c-0.7,0-1.2,0.5-1.2,1.2c0,0.7,0.5,1.2,1.2,1.2h5.8v3.4H12.8z"/>
	<path d="M46.2,12.6L41.4,0.7c-0.4-0.9-1.8-0.9-2.2,0l-4.8,11.9c-0.1,0.1-0.1,0.3-0.1,0.4v42.5c0,0.7,0.5,1.2,1.2,1.2h9.6
		c0.7,0,1.2-0.5,1.2-1.2V13C46.3,12.9,46.3,12.7,46.2,12.6z M43.9,14.2V47h-7.2V14.2H43.9z M37.3,11.9l1.6-4
		c0.4,0.3,0.9,0.5,1.4,0.5c0.5,0,1-0.2,1.4-0.5l1.6,4H37.3z M36.7,54.3v-5h7.2v5H36.7z"/>
</g>
</svg>
