<svg height="20" viewBox="0 0 20 20" width="20" xmlns="http://www.w3.org/2000/svg"><path d="m21.7001111 2961h-3.35c.236 1.614.443 3.818.095 5.157.219.018.448.033.709.033 1.374 0 2.374-.293 2.722-.49.225-.683.14-2.652-.176-4.7zm-1.7 7.155c-1.132.085-2.406.017-3.455-.336-1.604.48-3.851.51-5.368-.001-.855.257-1.95399999.407-3.17699999.361v8.821h4.99999999v-4h2v4h5zm-13.85899999-2.35c.267.149 1.041.385 2.277.385.411 0 .784-.028 1.121-.07-.309-1.364-.13-3.53.079-5.12h-3.358c-.289 2.105-.351 4.125-.119 4.805zm5.36999999 0c1.017.567 3.976.474 4.999-.105.225-.683.14-2.652-.176-4.7h-4.704c-.289 2.105-.351 4.125-.119 4.805zm11.855 1.262c-.302.302-.786.542-1.366.725v11.208h-15.99999999v-11.119c-.63-.185-1.144-.453-1.437-.814-1.267-1.569 0-8.067 0-8.067h18.80299999s1.426 6.641 0 8.067zm-13.366 5.933h2v-4h-2zm6 0h2v-4h-2z" fill-rule="evenodd" transform="translate(-4 -2959)"/></svg>