<svg height="20" viewBox="0 0 20 20" width="20" xmlns="http://www.w3.org/2000/svg"><path d="m221.308665 4652.48039-2.922286-1.80542c.867008-1.84409 1.58436-4.50541 1.560415-6.96012 2.082215 2.35498 2.574085 5.94445 1.361871 8.76554m-4.630361-2.8618-1.28405-.7928-1.70608-1.05537-1.286045-.79381c1.223189-1.62427 3.260508-3.39916 5.493378-4.33647.222489 2.4537-.37414 5.12011-1.217203 6.97845m-5.983253-3.69735-2.921288-1.80542c1.973466-2.54326 5.229984-3.61694 8.236077-2.83025-2.140083 1.11745-3.947929 2.71525-5.314789 4.63567m8.93946-5.15267c-.066846-.04579-.132695-.09363-.200539-.13841-.081812-.05393-.15664-.11398-.23945-.16588-.078819-.04885-.161628-.08549-.240447-.13231-.079817-.04579-.160631-.08854-.241446-.1323-4.641335-2.52799-10.461961-.95054-13.221621 3.69531-.174599.29412-.331239.59434-.472913.89762l1.722043 1.06453 2.900336 1.79219 1.70608 1.05435 1.307995.80806-4.43481 6.58255c-.285345.48036-.898935.63404-1.370851.34297-.470918-.29106-.621571-.91696-.336227-1.39833l.516812-.87015c.285345-.48036.135689-1.10625-.336227-1.39731-.470918-.29209-1.084508-.13841-1.369853.34296l-1.034622 1.74029c-.570689.96174-.269381 2.21352.673452 2.79565l1.70608 1.05435c.942834.58315 2.170014.2758 2.740703-.68594l4.951623-7.45269 1.307995.80908 1.707077 1.05434 2.899338 1.79219 1.722044 1.06351c.027936.0173.386113-.54956.560711-.84266 2.761655-4.65094 1.432709-10.65035-2.923283-13.67397" fill-rule="evenodd" transform="translate(-204 -4639)"/></svg>