<svg height="20" viewBox="0 0 20 20" width="20" xmlns="http://www.w3.org/2000/svg"><path d="m221.407204 3533.35204 1.412799 1.41174-4.238397 4.23622-1.413799-1.41174zm-.939202-.9385-4.239396 4.23522-1.412799-1.41174 4.238397-4.23622zm-12.71719-4.23622-1.413798-1.41174 4.239396-4.23623 1.412799 1.41174zm1.901384-6.57149-4.238398 4.23622-1.413798-1.41174 4.239397-4.23622zm1.630614 11.51358-1.4128-1.41274 4.239397-4.23522c.867263.86661.544537.54512 1.412799 1.41174zm6.78823-10.16074 1.966328 1.96485-2.555827.59006zm-.959185 4.68949 6.888145-1.58846-7.064995-7.0597-1.589649 6.88299-1.235949-1.23603-7.064995 7.05971 4.238398 4.23622 7.064994-7.0597z" fill-rule="evenodd" transform="translate(-204 -3519)"/></svg>