<?xml version="1.0" encoding="utf-8"?>
<!-- Generator: Adobe Illustrator 19.0.1, SVG Export Plug-In . SVG Version: 6.00 Build 0)  -->
<svg version="1.0" id="Ebene_1" xmlns="http://www.w3.org/2000/svg" xmlns:xlink="http://www.w3.org/1999/xlink" x="0px" y="0px"
	 width="60px" height="60px" viewBox="0 0 60 60" style="enable-background:new 0 0 60 60;" xml:space="preserve">
<g id="eingeschraenkte_x5F_nutzung">
	<path d="M47.486,20H44v-6.569c0-7.602-6.647-13.556-14-13.556s-14,5.91-14,13.456V20h-3.486C11.307,20,10,20.525,10,21.732v34.972
		C10,57.911,11.307,60,12.514,60h34.972C48.693,60,50,57.911,50,56.704V21.732C50,20.525,48.693,20,47.486,20z M22,13.331
		c0-5.179,3.016-9.084,8-9.084c4.903,0,8,4.034,8,9.185V20H22V13.331z M46,54H14V24h32V54z"/>
	<path d="M25.629,42h8.743c1.207,0,2.186-1.793,2.186-3c0-1.207-0.979-3-2.186-3h-8.743c-1.207,0-2.186,1.793-2.186,3
		C23.443,40.207,24.421,42,25.629,42z"/>
</g>
</svg>
