<?xml version="1.0" encoding="utf-8"?>
<!-- Generator: Adobe Illustrator 19.0.1, SVG Export Plug-In . SVG Version: 6.00 Build 0)  -->
<svg version="1.0" id="Ebene_1" xmlns="http://www.w3.org/2000/svg" xmlns:xlink="http://www.w3.org/1999/xlink" x="0px" y="0px"
	 width="60px" height="60px" viewBox="0 0 60 60" style="enable-background:new 0 0 60 60;" xml:space="preserve">
<g id="freie_x5F_nutzung">
	<path d="M21.5,46.495c1.22,0,2.5-0.989,2.5-2.209v-8.837c0-1.22-1.28-2.209-2.5-2.209S19,34.229,19,35.449v8.837
		C19,45.506,20.28,46.495,21.5,46.495z"/>
	<path d="M44,0.103c-7.432,0-13,5.974-13,13.6V20H3.934C2.714,20,2,20.974,2,22.194v35.347C2,58.761,2.714,60,3.934,60H39.28
		C40.5,60,42,58.761,42,57.541V22.194C42,20.974,40.5,20,39.28,20H35v-6.297c0-5.235,3.963-9.182,9-9.182c4.956,0,9,4.077,9,9.283
		v8.39c0,1.22,0.78,2.209,2,2.209s2-0.989,2-2.209v-8.39C57,6.121,51.432,0.103,44,0.103z M37,24v31H6V24H37z"/>
</g>
</svg>
