<?xml version="1.0" encoding="utf-8"?>
<!-- Generator: Adobe Illustrator 19.0.1, SVG Export Plug-In . SVG Version: 6.00 Build 0)  -->
<svg version="1.0" id="Ebene_1" xmlns="http://www.w3.org/2000/svg" xmlns:xlink="http://www.w3.org/1999/xlink" x="0px" y="0px"
	 width="60px" height="60px" viewBox="0 0 60 60" style="enable-background:new 0 0 60 60;" xml:space="preserve">
<path id="gesetze" d="M54,48c1.104,0,2-0.896,2-2.001v-44C56,0.895,55.104,0,54,0H12C7.589,0,4,3.588,4,7.999V52h0.084
	c0.012,4,3.557,8,7.916,8h42c1.104,0,2-0.896,2-2.001v-6c0-1.104-0.896-2-2-2s-2,0.896-2,2V56H12c-2.197,0-3.918-1.767-3.918-4.023
	c0-2.125,1.779-3.915,3.918-4.006V48H54z M16,4h6v27.008l-1.58-1.693c-0.379-0.406-0.908-0.637-1.463-0.637s-1.086,0.23-1.463,0.637
	L16,30.918V4z M8,45.137V7.999C8,5.793,9.794,4,12,4v32c0,0.822,0.502,1.561,1.268,1.861c0.764,0.301,1.637,0.104,2.195-0.498
	l3.494-3.752l3.58,3.838c0.387,0.414,0.92,0.637,1.463,0.637c0.246,0,0.494-0.045,0.732-0.139C25.498,37.646,26,36.908,26,36.086V4
	h26v40H12.387c-0.077,0-0.144-0.045-0.222-0.045C10.636,43.955,9.22,44.402,8,45.137z"/>
</svg>
