<?xml version="1.0" encoding="utf-8"?>
<!-- Generator: Adobe Illustrator 19.0.1, SVG Export Plug-In . SVG Version: 6.00 Build 0)  -->
<svg version="1.0" id="Ebene_1" xmlns="http://www.w3.org/2000/svg" xmlns:xlink="http://www.w3.org/1999/xlink" x="0px" y="0px"
	 width="60px" height="60px" viewBox="0 0 60 60" style="enable-background:new 0 0 60 60;" xml:space="preserve">
<g id="georgrafie">
	<path d="M16.731,39.35c4.341,4.354,10.114,6.752,16.254,6.752c6.139,0,11.912-2.398,16.253-6.752s6.733-10.143,6.733-16.299
		s-2.392-11.945-6.733-16.299S39.124,0,32.984,0c-6.139,0-11.912,2.398-16.254,6.752c-4.341,4.354-6.733,10.143-6.733,16.299
		S12.39,34.996,16.731,39.35z M19.551,9.58C23.139,5.982,27.911,4,32.984,4c5.074,0,9.846,1.982,13.433,5.58
		c7.407,7.428,7.407,19.514,0,26.941c-3.588,3.598-8.359,5.58-13.433,5.58c-5.074,0-9.846-1.982-13.433-5.58
		C12.144,29.094,12.144,17.008,19.551,9.58z"/>
	<path d="M50.689,40.914c-9.762,9.789-25.647,9.789-35.409,0s-9.762-25.719,0-35.508c0.779-0.781,0.779-2.047,0-2.828
		c-0.779-0.781-2.041-0.781-2.82,0c-11.318,11.35-11.2,29.814,0.118,41.164C17.926,49.105,24,51.901,32,52.196V56h-8.214
		c-1.102,0-1.994,0.895-1.994,2s0.892,2,1.994,2H43.73c1.102,0,1.994-0.895,1.994-2s-0.892-2-1.994-2H36v-3.878
		c6-0.618,12.678-3.411,17.633-8.379c0.779-0.781,0.717-2.047-0.062-2.828S51.468,40.133,50.689,40.914z"/>
</g>
</svg>
