<?xml version="1.0" encoding="utf-8"?>
<!-- Generator: Adobe Illustrator 19.0.1, SVG Export Plug-In . SVG Version: 6.00 Build 0)  -->
<svg version="1.0" id="Ebene_1" xmlns="http://www.w3.org/2000/svg" xmlns:xlink="http://www.w3.org/1999/xlink" x="0px" y="0px"
	 width="60px" height="60px" viewBox="0 0 60 60" style="enable-background:new 0 0 60 60;" xml:space="preserve">
<g id="kultur">
	<path d="M30,38H10c-1.105,0-2,0.896-2,2.001c0,6.617,5.383,12.001,12,12.001c6.617,0,12-5.384,12-12.001C32,38.896,31.105,38,30,38
		z M20,48c-3.721,0-6.857-3-7.746-6h15.492C26.857,45,23.721,48,20,48z"/>
	<path d="M23.674,23.585c-1.061,0.307-1.672,1.416-1.363,2.477c0.305,1.061,1.414,1.68,2.477,1.363
		c1.496-0.432,3.143-0.416,4.617,0.045c0.199,0.061,0.398,0.09,0.596,0.09c0.854,0,1.643-0.549,1.91-1.404
		c0.328-1.055-0.26-2.176-1.314-2.506C28.375,22.958,25.912,22.935,23.674,23.585z"/>
	<path d="M10.559,27.425c1.486-0.432,3.139-0.416,4.615,0.045c0.199,0.061,0.398,0.09,0.596,0.09c0.854,0,1.643-0.549,1.91-1.404
		c0.328-1.055-0.26-2.176-1.314-2.506c-2.223-0.691-4.684-0.713-6.924-0.064c-1.061,0.309-1.67,1.418-1.361,2.479
		C8.389,27.12,9.486,27.737,10.559,27.425z"/>
	<path d="M58,0H22c-1.105,0-2,0.897-2,2.003V12H2c-1.105,0-2,0.897-2,2.003v26c0,11.021,8.973,19.988,20,19.988
		c8.091,0,15.233-4.79,18.362-12.096c0.547,0.044,1.094,0.096,1.638,0.096c11.027,0,20-8.977,20-20.012V2.003
		C60,0.897,59.105,0,58,0z M36,39.979c0,1.652-0.25,3.275-0.742,4.828C33.148,51.497,27.016,55.991,20,55.991
		c-8.822,0-16-7.172-16-15.988V16h25.466c0.176,0,0.354,0.078,0.532,0.078c0.185,0,0.367-0.078,0.543-0.078H36V39.979z M56,27.979
		c0,8.828-7.178,16.012-16,16.012c-0.14,0-0.274-0.021-0.412-0.024C39.853,42.661,40,41.329,40,39.979V36h10c1.105,0,2-0.895,2-2
		c0-6.842-5.158-12-11.998-12H40v-7.997C40,12.897,39.105,12,38,12h-3.26c0.105,0,0.201-0.135,0.308-0.192
		c0.979-0.516,1.354-1.724,0.838-2.7c-0.514-0.977-1.727-1.351-2.701-0.838c-1.074,0.564-2.051,1.286-2.902,2.139
		C29.793,10.899,29.365,11,28.968,12H24V4h32V27.979z M40,32v-6h0.002c3.938,0,6.957,2,7.777,6H40z"/>
	<path d="M44.994,11.755c0.664,0.365,1.271,0.822,1.809,1.361c0.574,0.572,1.053,1.223,1.426,1.934
		c0.357,0.682,1.053,1.07,1.773,1.07c0.313,0,0.631-0.074,0.928-0.229c0.979-0.514,1.355-1.723,0.842-2.701
		c-0.563-1.07-1.283-2.047-2.141-2.902C48.83,9.485,47.918,8.8,46.924,8.251c-0.971-0.529-2.184-0.182-2.717,0.787
		C43.674,10.005,44.027,11.222,44.994,11.755z"/>
</g>
</svg>
