<?xml version="1.0" encoding="utf-8"?>
<!-- Generator: Adobe Illustrator 19.0.1, SVG Export Plug-In . SVG Version: 6.00 Build 0)  -->
<svg version="1.0" id="Ebene_1" xmlns="http://www.w3.org/2000/svg" xmlns:xlink="http://www.w3.org/1999/xlink" x="0px" y="0px"
	 width="60px" height="60px" viewBox="0 0 60 60" style="enable-background:new 0 0 60 60;" xml:space="preserve">
<g id="bildung">
	<path d="M59.112,18.149L30.962,6.137c-0.503-0.217-1.08-0.217-1.583,0L1.229,18.149c-0.721,0.307-1.196,1.002-1.219,1.781
		c-0.022,0.779-0.021,1.938,0.68,2.287L2,23.228v28.795c0,1.106,0.889,2.002,2,2.002s2-0.896,2-2.002V25.23l2,1.001v13.998
		c0,0.439,0.878,1.374,1.145,1.723c0.295,0.386,8.193,8.935,20.51,8.935s18.844-8.549,19.139-8.935
		C49.061,41.603,50,40.681,50,40.242V26.245l8.543-4.465c0.701-0.349,1.472-1.07,1.45-1.85
		C59.969,19.151,59.833,18.456,59.112,18.149z M46,39.508c-2,1.716-8.769,7.374-17.539,7.374C19.688,46.882,14,41.205,12,39.496
		V28.233l16.229,7.56c0.283,0.141,1.112,0.211,1.421,0.211s1.403-0.255,1.686-0.396L46,28.247V39.508z M30.171,31.764L6.798,20.128
		l23.373-9.973l23.373,9.973L30.171,31.764z"/>
</g>
</svg>
