<?xml version="1.0" encoding="utf-8"?>
<!-- Generator: Adobe Illustrator 19.0.1, SVG Export Plug-In . SVG Version: 6.00 Build 0)  -->
<svg version="1.0" id="Ebene_1" xmlns="http://www.w3.org/2000/svg" xmlns:xlink="http://www.w3.org/1999/xlink" x="0px" y="0px"
	 width="60px" height="60px" viewBox="0 0 60 60" style="enable-background:new 0 0 60 60;" xml:space="preserve">
<path id="gesundheit" d="M41.907,0.076c-6.504,0-9.337,3.368-11.904,4.772C27.425,3.428,24.53,0,17.992,0C12.767,0,0,2.379,0,18.31
	c0,27.731,27.972,40.957,29.162,41.507C29.429,59.938,29.715,60,30,60c0.338,0,0.676-0.086,0.979-0.256
	C32.164,59.079,60,43.177,60,18.517C60,2.472,47.171,0.076,41.907,0.076z M17.992,4c6.932,0,10.884,4.811,10.964,4.859
	c0.641,0.391,1.446,0.391,2.085,0.002c0.078-0.048,3.934-4.785,10.866-4.785c2.496,0,14.093,0,14.093,14.44
	c0,1.879-0.19,3.709-0.538,5.483H39.098l-4.223-8.688c-0.328-0.676-1.01-1.111-1.762-1.125c-0.738,0.063-1.449,0.396-1.803,1.061
	L24.027,28.92l-3.148-8.955c-0.262-0.742-0.934-1.262-1.717-1.328c-0.781-0.088-1.535,0.33-1.918,1.02L14.824,24H4.473
	C4.172,22.179,4,20.286,4,18.31C4,4,15.521,4,17.992,4z M29.916,55.719C25.925,53.617,10.148,44.409,5.377,28H16
	c0.725,0,1.395-0.393,1.748-1.027l0.83-1.49l3.186,9.063c0.264,0.748,0.943,1.27,1.736,1.33c0.051,0.004,0.1,0.006,0.15,0.006
	c0.734,0,1.416-0.404,1.766-1.061l7.578-14.227l3.053,6.281C36.381,27.563,37.08,28,37.846,28h16.537
	C49.32,42.941,33.817,53.305,29.916,55.719z"/>
</svg>
