<?xml version="1.0" encoding="UTF-8" standalone="no"?>
<!-- Generator: Gravit.io -->
<svg xmlns="http://www.w3.org/2000/svg" xmlns:xlink="http://www.w3.org/1999/xlink" style="isolation:isolate" viewBox="0 0 60 60" width="60" height="60"><defs><clipPath id="_clipPath_cOU0GTxDaNt8MUxRdi0q1k7dws7bHFkj"><rect width="60" height="60"/></clipPath></defs><g clip-path="url(#_clipPath_cOU0GTxDaNt8MUxRdi0q1k7dws7bHFkj)"><g id="Ebene_2-2"><path d=" M 24.115 25.168 C 23.805 25.167 23.5 25.092 23.223 24.95 L 1.535 13.869 C 0.84 13.542 0.396 12.843 0.396 12.074 C 0.396 11.306 0.84 10.607 1.535 10.28 L 24.532 0.17 C 25.043 -0.057 25.626 -0.057 26.138 0.17 L 49.055 10.36 C 49.75 10.686 50.194 11.386 50.194 12.154 C 50.194 12.922 49.75 13.621 49.055 13.948 L 39.678 18.567 C 38.715 18.956 37.615 18.535 37.157 17.603 C 36.699 16.671 37.037 15.544 37.933 15.018 L 43.563 12.263 L 25.345 4.155 L 7.027 12.283 L 25.008 21.422 C 25.821 21.838 26.244 22.756 26.032 23.645 C 25.821 24.534 25.029 25.163 24.115 25.168 Z " fill="rgb(0,0,0)"/><path d=" M 24.115 36.191 C 11.428 36.191 9.743 29.887 9.584 29.173 C 9.57 29.035 9.57 28.895 9.584 28.757 L 9.584 16.862 C 9.584 15.767 10.472 14.88 11.567 14.88 C 12.661 14.88 13.549 15.767 13.549 16.862 L 13.549 28.519 C 13.827 29.133 15.67 32.285 24.155 32.285 C 25.25 32.285 26.138 33.173 26.138 34.268 C 26.138 35.363 25.25 36.25 24.155 36.25 L 24.115 36.191 Z " fill="rgb(0,0,0)"/><path d=" M 5.342 36.191 C 4.247 36.191 3.359 35.303 3.359 34.208 L 3.359 12.798 C 3.359 11.703 4.247 10.816 5.342 10.816 C 6.437 10.816 7.324 11.703 7.324 12.798 L 7.324 34.208 C 7.324 35.303 6.437 36.191 5.342 36.191 Z " fill="rgb(0,0,0)"/><path d=" M 43.94 60 C 39.451 59.942 35.188 58.025 32.164 54.707 C 29.158 51.518 27.708 47.167 28.199 42.812 L 28.199 22.413 C 28.199 21.318 29.087 20.43 30.182 20.43 L 57.52 20.43 C 58.615 20.43 59.502 21.318 59.502 22.413 L 59.502 42.911 C 59.991 47.079 58.703 51.259 55.954 54.429 C 53.062 57.826 48.874 59.848 44.416 60 L 43.94 60 Z  M 32.164 24.395 L 32.164 43.03 C 32.169 43.11 32.169 43.189 32.164 43.268 C 31.795 46.482 32.861 49.695 35.078 52.05 C 37.42 54.627 40.756 56.071 44.237 56.015 C 47.581 55.893 50.719 54.367 52.881 51.813 C 54.955 49.463 55.928 46.34 55.557 43.229 C 55.552 43.149 55.552 43.07 55.557 42.991 L 55.557 24.356 L 32.164 24.395 Z  M 30.182 43.03" fill="rgb(0,0,0)"/><path d=" M 43.861 52.209 L 43.722 52.209 C 38.551 51.805 34.567 47.483 34.583 42.297 C 34.583 41.202 35.47 40.314 36.565 40.314 L 51.176 40.314 C 52.271 40.314 53.158 41.202 53.158 42.297 C 53.168 47.54 49.094 51.884 43.861 52.209 L 43.861 52.209 Z  M 38.924 44.279 C 39.57 46.476 41.499 48.051 43.781 48.244 C 46.118 48.103 48.12 46.521 48.797 44.279 L 38.924 44.279 Z " fill="rgb(0,0,0)"/><path d=" M 35.376 32.801 C 34.547 32.786 33.814 32.257 33.54 31.474 C 33.266 30.691 33.508 29.821 34.147 29.292 C 35.291 28.311 36.743 27.764 38.25 27.746 C 39.655 27.786 41.005 28.303 42.076 29.213 C 42.909 29.924 43.006 31.176 42.294 32.008 C 41.583 32.84 40.331 32.938 39.499 32.226 C 39.109 31.9 38.619 31.719 38.112 31.711 C 37.567 31.663 37.03 31.859 36.645 32.246 C 36.302 32.577 35.852 32.774 35.376 32.801 Z " fill="rgb(0,0,0)"/><path d=" M 52.127 32.801 C 51.655 32.801 51.198 32.632 50.839 32.325 C 50.459 32.009 49.985 31.828 49.491 31.81 C 48.952 31.775 48.422 31.961 48.024 32.325 C 47.192 33.037 45.94 32.939 45.228 32.107 C 44.517 31.275 44.614 30.023 45.447 29.312 C 46.601 28.319 48.068 27.765 49.59 27.746 C 50.995 27.786 52.344 28.303 53.416 29.213 C 54.047 29.752 54.275 30.627 53.987 31.406 C 53.7 32.185 52.957 32.702 52.127 32.702 L 52.127 32.801 Z " fill="rgb(0,0,0)"/></g></g></svg>