<?xml version="1.0" encoding="utf-8"?>
<!-- Generator: Adobe Illustrator 19.0.1, SVG Export Plug-In . SVG Version: 6.00 Build 0)  -->
<svg version="1.0" id="Ebene_1" xmlns="http://www.w3.org/2000/svg" xmlns:xlink="http://www.w3.org/1999/xlink" x="0px" y="0px"
	 width="60px" height="60px" viewBox="0 0 60 60" style="enable-background:new 0 0 60 60;" xml:space="preserve">
<path id="umwelt" d="M59.94,1.885c-0.045-0.765-0.523-1.436-1.232-1.728c-0.707-0.295-1.519-0.158-2.092,0.352
	c-8.278,7.357-12.162,7.918-21.55,9.272c-3.361,0.485-7.542,1.089-12.76,2.156c-5.552,1.135-9.674,3.876-12.254,8.148
	c-5.04,8.347-2.386,19.696-1.836,21.779C2.822,49.951,0.325,56.751,0.12,57.324c-0.373,1.039,0.17,2.182,1.209,2.554
	c0.223,0.08,0.449,0.118,0.674,0.118c0.82,0,1.59-0.509,1.883-1.325c0.048-0.134,2.447-6.641,7.646-14.44
	c6.272,2.167,12.053,3.274,17.202,3.274c8.284,0,15.113-2.791,20.298-8.295C61.246,26.245,59.998,2.873,59.94,1.885z M46.121,36.468
	c-7.114,7.555-18.012,8.992-32.184,4.35c5.525-7.411,13.47-15.299,24.212-19.733c1.019-0.421,1.506-1.591,1.086-2.611
	c-0.422-1.021-1.595-1.504-2.613-1.086c-11.149,4.602-19.397,12.47-25.209,20.015c-0.58-3.985-0.867-10.412,2.069-15.262
	c1.98-3.27,5.218-5.384,9.624-6.286c5.105-1.044,9.05-1.613,12.53-2.115c8.403-1.213,13.154-1.898,20.325-7.474
	C55.751,13.34,54.273,27.814,46.121,36.468z"/>
</svg>
