<?xml version="1.0" encoding="UTF-8" standalone="no"?>
<!-- Generator: Gravit.io -->
<svg xmlns="http://www.w3.org/2000/svg" xmlns:xlink="http://www.w3.org/1999/xlink" style="isolation:isolate" viewBox="0 0 60 60" width="60" height="60"><defs><clipPath id="_clipPath_p4Jl9a8Gg1xEb94IsInQeTScbm7QQN7u"><rect width="60" height="60"/></clipPath></defs><g clip-path="url(#_clipPath_p4Jl9a8Gg1xEb94IsInQeTScbm7QQN7u)"><g id="Ebene_2-2"><path d=" M 21.58 52.558 C 22.375 53.326 23.642 53.303 24.41 52.508 C 25.178 51.713 25.155 50.446 24.36 49.678 C 22.947 48.305 21.686 46.783 20.6 45.138 L 22.96 45.138 C 24.065 45.138 24.96 44.243 24.96 43.138 C 24.96 42.034 24.065 41.138 22.96 41.138 L 18.4 41.138 C 17.078 38.253 16.266 35.161 16 31.998 L 22.9 31.998 C 24.005 31.998 24.9 31.103 24.9 29.998 C 24.9 28.894 24.005 27.998 22.9 27.998 L 16 27.998 C 16.216 25.11 16.892 22.275 18 19.599 L 22.92 19.599 C 24.025 19.599 24.92 18.703 24.92 17.599 C 24.92 16.494 24.025 15.599 22.92 15.599 L 20 15.599 C 22.048 12.285 24.775 9.443 28 7.259 L 28 10.439 C 28 11.543 28.895 12.439 30 12.439 C 31.105 12.439 32 11.543 32 10.439 L 32 7.099 C 33.985 8.302 35.824 9.732 37.48 11.359 L 37.94 11.819 C 38.707 12.614 39.974 12.636 40.77 11.869 C 41.565 11.101 41.587 9.834 40.82 9.039 L 40.3 8.499 C 38.84 7.065 37.254 5.766 35.56 4.619 C 40.523 5.689 45.059 8.201 48.6 11.839 C 49.1 12.35 49.834 12.555 50.527 12.377 C 51.219 12.2 51.765 11.666 51.957 10.977 C 52.149 10.289 51.96 9.55 51.46 9.039 C 42.597 -0.034 28.986 -2.553 17.464 2.747 C 5.941 8.046 -1.004 20.02 0.117 32.654 C 1.239 45.287 10.184 55.85 22.46 59.038 C 22.626 59.059 22.794 59.059 22.96 59.038 C 24.065 59.176 25.072 58.392 25.21 57.288 C 25.348 56.183 24.565 55.176 23.46 55.038 C 17.581 53.51 12.423 49.972 8.88 45.038 L 16 45.038 C 17.474 47.809 19.355 50.344 21.58 52.558 Z  M 12 27.998 L 4.001 27.998 C 4.184 25.086 4.86 22.225 6.001 19.539 L 13.72 19.539 C 12.761 22.266 12.182 25.113 12 27.998 Z  M 25 4.419 C 20.961 7.328 17.676 11.161 15.42 15.599 L 8.36 15.599 C 12.206 9.816 18.205 5.812 25.02 4.479 L 25 4.419 Z  M 6.521 41.138 C 5.127 38.272 4.273 35.174 4.001 31.998 L 12 31.998 C 12.212 35.108 12.886 38.168 14 41.078 L 6.521 41.138 Z " fill="rgb(0,0,0)"/><path d=" M 57.999 15.599 L 30 15.599 C 29.47 15.599 28.961 15.809 28.586 16.185 C 28.211 16.56 28 17.068 28 17.599 L 28 57.998 C 28 59.102 28.895 59.998 30 59.998 L 57.999 59.998 C 59.104 59.998 59.999 59.102 59.999 57.998 L 59.999 17.599 C 59.999 17.068 59.789 16.56 59.414 16.185 C 59.039 15.809 58.53 15.599 57.999 15.599 Z  M 55.999 55.998 L 32 55.998 L 32 19.599 L 55.999 19.599 L 55.999 55.998 Z " fill="rgb(0,0,0)"/><path d=" M 37.28 29.998 L 51.48 29.998 C 52.584 29.998 53.479 29.103 53.479 27.998 C 53.479 26.894 52.584 25.999 51.48 25.999 L 37.28 25.999 C 36.175 25.999 35.28 26.894 35.28 27.998 C 35.28 29.103 36.175 29.998 37.28 29.998 Z " fill="rgb(0,0,0)"/><path d=" M 37.28 36.938 L 44.48 36.938 C 45.584 36.938 46.48 36.043 46.48 34.938 C 46.48 33.834 45.584 32.938 44.48 32.938 L 37.28 32.938 C 36.175 32.938 35.28 33.834 35.28 34.938 C 35.28 36.043 36.175 36.938 37.28 36.938 Z " fill="rgb(0,0,0)"/><path d=" M 37.28 43.718 L 51.48 43.718 C 52.584 43.718 53.479 42.823 53.479 41.718 C 53.479 40.614 52.584 39.718 51.48 39.718 L 37.28 39.718 C 36.175 39.718 35.28 40.614 35.28 41.718 C 35.28 42.823 36.175 43.718 37.28 43.718 Z " fill="rgb(0,0,0)"/></g></g></svg>