<?xml version="1.0" encoding="UTF-8" standalone="no"?>
<!-- Generator: Gravit.io -->
<svg xmlns="http://www.w3.org/2000/svg" xmlns:xlink="http://www.w3.org/1999/xlink" style="isolation:isolate" viewBox="0 0 60 60" width="60" height="60"><defs><clipPath id="_clipPath_BODHejnjKUMKpdXO9YSxislZ1rBMB7Ny"><rect width="60" height="60"/></clipPath></defs><g clip-path="url(#_clipPath_BODHejnjKUMKpdXO9YSxislZ1rBMB7Ny)"><g id="Ebene_2-2"><path d=" M 51.84 57.2 L 38 25.58 L 38 4 L 38 4 C 39.105 4 40 3.105 40 2 C 40 0.895 39.105 0 38 0 L 36 0 C 34.895 0 34 0.895 34 2 L 34 26 C 33.998 26.275 34.052 26.547 34.16 26.8 L 40.82 42 L 19.18 42 L 25.82 26.8 C 25.935 26.549 25.996 26.276 26 26 L 26 2 C 26 0.895 25.105 0 24 0 L 22 0 C 20.895 0 20 0.895 20 2 C 20 3.08 20 4 22 4 L 22 25.58 L 8.16 57.2 C 7.89 57.819 7.95 58.534 8.322 59.098 C 8.693 59.663 9.324 60.002 10 60 L 50 60 C 50.676 60.002 51.307 59.663 51.678 59.098 C 52.05 58.534 52.11 57.819 51.84 57.2 Z  M 13.06 56 L 17.48 45.9 C 17.648 45.956 17.823 45.99 18 46 L 42 46 C 42.177 45.99 42.352 45.956 42.52 45.9 L 46.94 56 L 13.06 56 Z " fill="rgb(0,0,0)"/><path d=" M 29.58 32.44 C 29.58 31.336 30.476 30.44 31.58 30.44 C 32.684 30.44 33.58 31.336 33.58 32.44 C 33.58 33.544 32.684 34.44 31.58 34.44 C 30.476 34.44 29.58 33.544 29.58 32.44 Z " fill="rgb(0,0,0)"/><path d=" M 27.58 38.44 C 27.58 37.336 28.476 36.44 29.58 36.44 C 30.684 36.44 31.58 37.336 31.58 38.44 C 31.58 39.544 30.684 40.44 29.58 40.44 C 28.476 40.44 27.58 39.544 27.58 38.44 Z " fill="rgb(0,0,0)"/></g></g></svg>