<?xml version="1.0" encoding="utf-8"?>
<!-- Generator: Adobe Illustrator 19.0.1, SVG Export Plug-In . SVG Version: 6.00 Build 0)  -->
<svg version="1.0" id="Ebene_1" xmlns="http://www.w3.org/2000/svg" xmlns:xlink="http://www.w3.org/1999/xlink" x="0px" y="0px"
	 width="60px" height="60px" viewBox="0 0 60 60" style="enable-background:new 0 0 60 60;" xml:space="preserve">
<path id="icon_x5F_kat_x5F_bevoelkerung" d="M53.754,32.327c1.725-1.616,2.82-3.896,2.82-6.441c0-4.879-3.968-8.848-8.847-8.848
	c-1.482,0-2.889,0.4-4.159,1.082C42.223,11.806,36.607,7.054,29.9,7.054c-6.674,0-12.263,4.705-13.643,10.971
	c-1.224-0.622-2.569-0.987-3.981-0.987c-4.879,0-8.849,3.969-8.849,8.848c0,2.545,1.095,4.825,2.821,6.441
	C2.523,34.432,0,38.422,0,42.996c0,1.103,0.893,1.997,1.997,1.997s1.997-0.894,1.997-1.997c0-4.555,3.707-8.261,8.262-8.261
	c1.597,0,3.128,0.497,4.448,1.345C12.602,39.734,10,45.037,10,50.949c0,1.103,0.893,1.997,1.997,1.997s1.997-0.894,1.997-1.997
	c0-5.343,2.651-10.068,6.697-12.962c0.194-0.083,0.387-0.175,0.553-0.323c0.036-0.032,0.05-0.077,0.084-0.111
	c2.485-1.602,5.435-2.544,8.606-2.544c8.791,0,15.941,7.151,15.941,15.94c0,1.103,0.893,1.997,1.997,1.997
	c1.104,0,1.997-0.894,1.997-1.997c0-5.887-2.581-11.17-6.653-14.823c1.338-0.881,2.902-1.392,4.531-1.392
	c4.555,0,8.26,3.706,8.26,8.261c0,1.103,0.893,1.997,1.997,1.997c1.104,0,1.997-0.894,1.997-1.997
	C60,38.422,57.477,34.432,53.754,32.327z M47.727,21.031c2.675,0,4.854,2.178,4.854,4.855c0,2.677-2.178,4.856-4.854,4.856
	c-2.321,0-4.325-1.649-4.766-3.921c-0.029-0.149-0.107-0.27-0.166-0.403c0.475-1.133,0.794-2.344,0.956-3.604
	c0.192-0.094,0.382-0.2,0.542-0.359C45.209,21.536,46.43,21.031,47.727,21.031z M29.9,11.047c5.505,0,9.984,4.479,9.984,9.984
	s-4.479,9.984-9.984,9.984s-9.984-4.479-9.984-9.984S24.395,11.047,29.9,11.047z M12.275,21.031c1.295,0,2.516,0.505,3.432,1.423
	c0.094,0.094,0.212,0.14,0.318,0.211c0.164,1.403,0.536,2.741,1.085,3.986c-0.018,0.06-0.058,0.107-0.07,0.169
	c-0.443,2.272-2.447,3.921-4.766,3.921c-2.677,0-4.856-2.178-4.856-4.856C7.42,23.21,9.598,21.031,12.275,21.031z M18.286,32.336
	c0.553-0.514,1.049-1.087,1.458-1.731c0.711,0.754,1.495,1.437,2.356,2.019c-0.682,0.293-1.338,0.631-1.979,0.995
	C19.545,33.137,18.935,32.703,18.286,32.336z M37.727,32.605c0.897-0.609,1.709-1.328,2.44-2.123
	c0.424,0.695,0.957,1.306,1.547,1.855c-0.67,0.379-1.3,0.827-1.892,1.329C39.146,33.277,38.452,32.914,37.727,32.605z"/>
</svg>
