<?xml version="1.0" encoding="UTF-8" standalone="no"?>
<!-- Generator: Gravit.io -->
<svg xmlns="http://www.w3.org/2000/svg" xmlns:xlink="http://www.w3.org/1999/xlink" style="isolation:isolate" viewBox="0 0 60 60" width="60" height="60"><defs><clipPath id="_clipPath_VP2Z6Qzmyq5ITIW762YrXqdjk9evLLNA"><rect width="60" height="60"/></clipPath></defs><g clip-path="url(#_clipPath_VP2Z6Qzmyq5ITIW762YrXqdjk9evLLNA)"><g id="Ebene_2-2"><path d=" M 53.84 32.292 C 57.139 29.279 57.664 24.275 55.062 20.643 C 52.461 17.011 47.554 15.898 43.64 18.052 C 42.24 11.617 36.545 7.028 29.96 7.028 C 23.375 7.028 17.68 11.617 16.28 18.052 C 15.043 17.413 13.672 17.077 12.28 17.072 C 8.647 17.077 5.387 19.305 4.062 22.688 C 2.737 26.071 3.617 29.921 6.28 32.392 C 2.444 34.54 0.048 38.575 0 42.972 C 0 44.076 0.895 44.972 2 44.972 C 3.105 44.972 4 44.076 4 42.972 C 3.98 39.939 5.631 37.142 8.296 35.694 C 10.961 34.247 14.207 34.384 16.74 36.052 C 12.467 39.836 10.015 45.265 10 50.972 C 10 52.076 10.895 52.972 12 52.972 C 13.105 52.972 14 52.076 14 50.972 C 14.013 45.819 16.507 40.987 20.7 37.992 C 20.903 37.916 21.092 37.808 21.26 37.672 L 21.26 37.552 C 26.181 34.343 32.465 34.089 37.629 36.89 C 42.793 39.691 46.007 45.097 46 50.972 C 46 52.076 46.895 52.972 48 52.972 C 49.105 52.972 50 52.076 50 50.972 C 49.983 45.305 47.562 39.912 43.34 36.132 C 45.858 34.516 49.055 34.395 51.688 35.817 C 54.32 37.24 55.972 39.98 56 42.972 C 56 44.076 56.895 44.972 58 44.972 C 59.105 44.972 60 44.076 60 42.972 C 60.012 38.564 57.661 34.488 53.84 32.292 L 53.84 32.292 Z  M 47.8 20.972 C 50.36 20.978 52.477 22.969 52.638 25.525 C 52.8 28.08 50.952 30.322 48.413 30.652 C 45.874 30.981 43.515 29.284 43.02 26.772 C 42.981 26.633 42.928 26.499 42.86 26.372 C 43.342 25.214 43.665 23.996 43.82 22.752 C 44.018 22.662 44.201 22.541 44.36 22.392 C 45.272 21.479 46.51 20.968 47.8 20.972 Z  M 30 10.972 C 35.523 10.972 40 15.449 40 20.972 C 40 26.495 35.523 30.972 30 30.972 C 24.477 30.972 20 26.495 20 20.972 C 20 15.449 24.477 10.972 30 10.972 Z  M 12.3 20.972 C 13.591 20.966 14.83 21.477 15.74 22.392 C 15.82 22.473 15.907 22.546 16 22.612 C 16.158 23.992 16.522 25.34 17.08 26.612 C 17.08 26.612 17.08 26.712 17.08 26.772 C 16.585 29.284 14.226 30.981 11.687 30.652 C 9.148 30.322 7.3 28.08 7.461 25.525 C 7.623 22.969 9.74 20.978 12.3 20.972 Z  M 18.3 32.292 C 18.859 31.777 19.35 31.192 19.76 30.552 C 20.47 31.304 21.262 31.974 22.12 32.552 C 21.435 32.847 20.767 33.181 20.12 33.552 C 19.559 33.079 18.956 32.657 18.32 32.292 L 18.3 32.292 Z  M 37.78 32.552 C 38.672 31.942 39.491 31.23 40.22 30.432 C 40.646 31.119 41.164 31.745 41.76 32.292 C 41.086 32.677 40.449 33.126 39.86 33.632 C 39.188 33.238 38.493 32.884 37.78 32.572 L 37.78 32.552 Z " fill="rgb(0,0,0)"/></g></g></svg>