<?xml version="1.0" encoding="utf-8"?>
<!-- Generator: Adobe Illustrator 19.0.1, SVG Export Plug-In . SVG Version: 6.00 Build 0)  -->
<svg version="1.0" id="Ebene_1" xmlns="http://www.w3.org/2000/svg" xmlns:xlink="http://www.w3.org/1999/xlink" x="0px" y="0px"
	 width="60px" height="60px" viewBox="0 0 60 60" style="enable-background:new 0 0 60 60;" xml:space="preserve">
<path id="soziales" d="M30,0C13.457,0,0,13.457,0,30s13.457,30,30,30s30-13.457,30-30S46.543,0,30,0z M15.078,51.258
	C15.958,43.737,22.295,38,30,38c7.689,0,14.039,5.744,14.92,13.259C40.691,54.236,35.552,56,30,56
	C24.447,56,19.307,54.235,15.078,51.258z M22,26c0-4.412,3.588-8,8-8s8,3.588,8,8s-3.588,8-8,8S22,30.412,22,26z M48.442,48.304
	c-1.486-5.842-5.65-10.565-11.096-12.835C40.172,33.271,42,29.849,42,26c0-6.617-5.383-12-12-12s-12,5.383-12,12
	c0,3.847,1.826,7.268,4.65,9.465c-5.451,2.269-9.607,6.994-11.089,12.841C6.892,43.603,4,37.134,4,30C4,15.664,15.664,4,30,4
	s26,11.664,26,26C56,37.133,53.109,43.601,48.442,48.304z"/>
</svg>
