<?xml version="1.0" encoding="utf-8"?>
<!-- Generator: Adobe Illustrator 19.0.1, SVG Export Plug-In . SVG Version: 6.00 Build 0)  -->
<svg version="1.0" id="Ebene_1" xmlns="http://www.w3.org/2000/svg" xmlns:xlink="http://www.w3.org/1999/xlink" x="0px" y="0px"
	 width="60px" height="60px" viewBox="0 0 60 60" style="enable-background:new 0 0 60 60;" xml:space="preserve">
<g id="wirtschaft">
	<path d="M57.736,56H4V2.207C4,1.114,3.092,0.23,2,0.23c-1.092,0-2,0.884-2,1.977v55.815C0,59.115,0.828,60,1.92,60h55.817
		c1.092,0,1.977-0.907,1.977-2C59.714,56.907,58.828,56,57.736,56z"/>
	<path d="M58.943,30.74l-10.896-6.855c-0.881-0.564-2.044-0.339-2.659,0.503l-9.021,12.346l-14.052-1.77
		c-0.637-0.07-1.262,0.173-1.694,0.636L6.861,50.383c-0.537,0.575-0.682,1.512-0.368,2.234C6.807,53.34,7.518,54,8.306,54h49.43
		C58.828,54,60,52.729,60,51.637V32.405C60,31.729,59.512,31.103,58.943,30.74z M56,50H12.858l9.977-10.838l14.22,1.631
		c0.72,0.085,1.451-0.214,1.875-0.796l8.674-11.784L56,33.49V50z"/>
</g>
</svg>
