<?xml version="1.0" encoding="utf-8"?>
<!-- Generator: Adobe Illustrator 19.0.1, SVG Export Plug-In . SVG Version: 6.00 Build 0)  -->
<svg version="1.0" id="Ebene_1" xmlns="http://www.w3.org/2000/svg" xmlns:xlink="http://www.w3.org/1999/xlink" x="0px" y="0px"
	 width="60px" height="60px" viewBox="0 0 60 60" style="enable-background:new 0 0 60 60;" xml:space="preserve">
<g id="verbraucherschutz">
	<path d="M48.924,39.498c1.343-1.756-1.118-3.094-1.118-3.094c-2.454-1.457-5.235-2.586-8.294-3.345
		c4.979-3.192,8.294-8.762,8.294-15.102c0-9.893-8.049-17.942-17.942-17.942S11.923,8.064,11.923,17.957
		c0,6.34,3.315,11.91,8.294,15.102C7.787,36.143-0.051,45.336-0.051,57.853c0,1.101,0.893,1.994,1.994,1.994
		s1.994-0.893,1.994-1.994c0-15.155,13.022-21.938,25.927-21.938c5.545,0,11.112,1.252,15.658,3.883
		C45.523,39.798,47.638,41.18,48.924,39.498z M15.912,17.957c0-7.693,6.26-13.953,13.953-13.953s13.953,6.26,13.953,13.953
		s-6.26,13.952-13.953,13.952S15.912,25.65,15.912,17.957z"/>
	<path d="M58.848,32.251c-0.986-0.493-2.183-0.096-2.677,0.889L43.437,54.541l-8.023-7.872c-0.783-0.773-2.047-0.767-2.82,0.018
		c-0.774,0.784-0.766,2.047,0.018,2.82l9.977,9.801c0.376,0.372,0.881,0.576,1.401,0.576c0.108,0,0.216-0.009,0.324-0.026
		c0.63-0.104,1.172-0.503,1.459-1.074l13.966-23.855C60.231,33.944,59.833,32.745,58.848,32.251z"/>
</g>
</svg>
