<?xml version="1.0" encoding="UTF-8" standalone="no"?>
<!-- Generator: Gravit.io -->
<svg xmlns="http://www.w3.org/2000/svg" xmlns:xlink="http://www.w3.org/1999/xlink" style="isolation:isolate" viewBox="0 0 60 60" width="60" height="60"><defs><clipPath id="_clipPath_3XZRbspaO0lAd1kiMKZbXRFk9Cn7bW4W"><rect width="60" height="60"/></clipPath></defs><g clip-path="url(#_clipPath_3XZRbspaO0lAd1kiMKZbXRFk9Cn7bW4W)"><g id="Ebene_2-2"><path d=" M 2.149 24.191 L 57.851 24.191 C 58.95 24.191 59.841 23.3 59.841 22.202 C 59.841 21.103 58.95 20.212 57.851 20.212 L 2.149 20.212 C 1.05 20.212 0.159 21.103 0.159 22.202 C 0.159 23.3 1.05 24.191 2.149 24.191 Z " fill="rgb(0,0,0)"/><path d=" M 57.851 56.021 L 2.149 56.021 C 1.05 56.021 0.159 56.912 0.159 58.011 C 0.159 59.109 1.05 60 2.149 60 L 57.851 60 C 58.95 60 59.841 59.109 59.841 58.011 C 59.841 56.912 58.95 56.021 57.851 56.021 Z " fill="rgb(0,0,0)"/><path d=" M 31.989 28.17 L 31.989 52.042 C 31.989 53.141 32.88 54.032 33.979 54.032 C 35.077 54.032 35.968 53.141 35.968 52.042 L 35.968 28.17 C 35.968 27.071 35.077 26.18 33.979 26.18 C 32.88 26.18 31.989 27.071 31.989 28.17 Z " fill="rgb(0,0,0)"/><path d=" M 24.032 28.17 L 24.032 52.042 C 24.032 53.141 24.923 54.032 26.021 54.032 C 27.12 54.032 28.011 53.141 28.011 52.042 L 28.011 28.17 C 28.011 27.071 27.12 26.18 26.021 26.18 C 24.923 26.18 24.032 27.071 24.032 28.17 Z " fill="rgb(0,0,0)"/><path d=" M 51.883 28.17 L 51.883 52.042 C 51.883 53.141 52.774 54.032 53.873 54.032 C 54.971 54.032 55.862 53.141 55.862 52.042 L 55.862 28.17 C 55.862 27.071 54.971 26.18 53.873 26.18 C 52.774 26.18 51.883 27.071 51.883 28.17 Z " fill="rgb(0,0,0)"/><path d=" M 43.926 28.17 L 43.926 52.042 C 43.926 53.141 44.816 54.032 45.915 54.032 C 47.014 54.032 47.905 53.141 47.905 52.042 L 47.905 28.17 C 47.905 27.071 47.014 26.18 45.915 26.18 C 44.816 26.18 43.926 27.071 43.926 28.17 Z " fill="rgb(0,0,0)"/><path d=" M 12.095 28.17 L 12.095 52.042 C 12.095 53.141 12.986 54.032 14.085 54.032 C 15.184 54.032 16.074 53.141 16.074 52.042 L 16.074 28.17 C 16.074 27.071 15.184 26.18 14.085 26.18 C 12.986 26.18 12.095 27.071 12.095 28.17 Z " fill="rgb(0,0,0)"/><path d=" M 4.138 28.17 L 4.138 52.042 C 4.138 53.141 5.029 54.032 6.127 54.032 C 7.226 54.032 8.117 53.141 8.117 52.042 L 8.117 28.17 C 8.117 27.071 7.226 26.18 6.127 26.18 C 5.029 26.18 4.138 27.071 4.138 28.17 Z " fill="rgb(0,0,0)"/><path d=" M 12.095 19.476 L 12.533 19.476 C 13.481 19.499 14.314 18.85 14.523 17.924 C 16.165 10.741 22.633 5.702 30 5.869 C 37.201 5.703 43.57 10.514 45.378 17.487 C 45.556 18.176 46.088 18.718 46.774 18.909 C 47.459 19.1 48.195 18.91 48.703 18.412 C 49.211 17.913 49.415 17.181 49.237 16.492 C 47.19 8.461 40.253 2.628 31.989 1.989 C 31.989 0.891 31.099 0 30 0 C 28.901 0 28.011 0.891 28.011 1.989 C 19.549 2.719 12.521 8.815 10.603 17.089 C 10.484 17.603 10.575 18.144 10.855 18.592 C 11.134 19.04 11.581 19.358 12.095 19.476 Z " fill="rgb(0,0,0)"/></g></g></svg>