<?xml version="1.0" encoding="utf-8"?>
<!-- Generator: Adobe Illustrator 19.0.1, SVG Export Plug-In . SVG Version: 6.00 Build 0)  -->
<svg version="1.0" id="Ebene_1" xmlns="http://www.w3.org/2000/svg" xmlns:xlink="http://www.w3.org/1999/xlink" x="0px" y="0px"
	 width="60px" height="60px" viewBox="0 0 60 60" style="enable-background:new 0 0 60 60;" xml:space="preserve">
<g id="transport">
	<path d="M59.411,56.464L43.094,40h3.048c1.1,0,1.858-0.654,1.858-1.756V21.947V9.977V2.332C48,1.231,47.242,0,46.142,0H14.275
		C13.175,0,12,1.231,12,2.332v7.644v11.971v16.297C12,39.346,13.175,40,14.275,40h2.484L0.589,56.317
		c-0.778,0.779-0.778,2.102,0,2.881c0.389,0.39,0.899,0.614,1.408,0.614s1.019-0.112,1.408-0.502L6.794,56h45.323
		c0.278,0,0.541-0.126,0.782-0.229l3.696,3.668c0.389,0.39,0.899,0.568,1.408,0.568s1.019-0.263,1.408-0.653
		C60.189,58.574,60.189,57.243,59.411,56.464z M44,8h-8V4h8V8z M28,8V4h4v4H28z M16,4h8v4h-8V4z M16,12h28v8H16V12z M16,36V24h28v12
		H16z M41.109,44H18.744l3.648-4h15.07L41.109,44z M10.777,52l3.983-4h29.39c0.278,0,0.541-0.053,0.781-0.156L49.076,52H10.777z"/>
	<circle cx="20.25" cy="31.923" r="1.995"/>
	<circle cx="40.167" cy="31.923" r="1.995"/>
</g>
</svg>
