<?xml version="1.0" encoding="UTF-8" standalone="no"?>
<!-- Generator: Gravit.io -->
<svg xmlns="http://www.w3.org/2000/svg" xmlns:xlink="http://www.w3.org/1999/xlink" style="isolation:isolate" viewBox="0 0 60 60" width="60" height="60"><defs><clipPath id="_clipPath_H5cLF59XtVcplv2N25yTcmdltthZSfNG"><rect width="60" height="60"/></clipPath></defs><g clip-path="url(#_clipPath_H5cLF59XtVcplv2N25yTcmdltthZSfNG)"><g id="Ebene_2-2"><path d=" M 22.294 31.775 C 26.285 31.765 30.079 30.037 32.707 27.034 C 38.225 25.163 41.987 20.046 42.128 14.222 C 42.269 8.397 38.759 3.104 33.339 0.968 C 27.919 -1.169 21.742 0.306 17.871 4.66 L 17.871 4.66 C 11.308 6.747 7.266 13.33 8.375 20.127 C 9.484 26.924 15.408 31.882 22.294 31.775 Z  M 29.772 4.124 C 33.219 4.696 36.111 7.04 37.384 10.295 C 38.657 13.549 38.124 17.233 35.98 19.993 C 37.183 12.821 32.593 5.954 25.507 4.323 C 26.898 3.948 28.353 3.88 29.772 4.124 Z  M 22.294 7.972 C 27.771 7.972 32.212 12.413 32.212 17.89 C 32.212 23.367 27.771 27.808 22.294 27.808 C 16.817 27.808 12.376 23.367 12.376 17.89 C 12.376 12.413 16.817 7.972 22.294 7.972 Z " fill="rgb(0,0,0)"/><path d=" M 57.997 56.033 L 3.986 56.033 L 3.986 2.022 C 3.986 0.926 3.098 0.038 2.003 0.038 C 0.907 0.038 0.019 0.926 0.019 2.022 L 0.019 58.016 C 0.019 59.112 0.907 60 2.003 60 L 57.997 60 C 59.093 60 59.981 59.112 59.981 58.016 C 59.981 56.921 59.093 56.033 57.997 56.033 Z " fill="rgb(0,0,0)"/><path d=" M 59.068 30.644 L 48.278 23.841 C 47.399 23.283 46.239 23.499 45.62 24.336 L 36.575 36.714 L 22.473 34.928 C 21.838 34.846 21.203 35.075 20.767 35.543 L 6.882 50.32 C 6.376 50.912 6.263 51.744 6.592 52.449 C 6.921 53.154 7.632 53.601 8.409 53.593 L 57.997 53.593 C 59.093 53.593 59.981 52.705 59.981 51.61 L 59.981 32.33 C 59.986 31.649 59.642 31.012 59.068 30.644 L 59.068 30.644 Z  M 56.014 49.626 L 12.972 49.626 L 22.889 38.915 L 37.131 40.72 C 37.844 40.81 38.55 40.506 38.975 39.927 L 47.623 28.026 L 55.934 33.322 L 56.014 49.626 Z " fill="rgb(0,0,0)"/><path d=" M 18.327 17.89 C 18.854 17.893 19.361 17.686 19.735 17.315 L 20.311 16.74 L 20.311 23.841 C 20.311 24.936 21.199 25.824 22.294 25.824 C 23.389 25.824 24.278 24.936 24.278 23.841 L 24.278 11.939 C 24.282 11.134 23.799 10.405 23.055 10.096 C 22.31 9.787 21.453 9.959 20.886 10.531 L 16.919 14.498 C 16.347 15.066 16.175 15.923 16.484 16.667 C 16.793 17.411 17.521 17.895 18.327 17.89 Z " fill="rgb(0,0,0)"/></g></g></svg>