<?xml version="1.0" encoding="utf-8"?>
<!-- Generator: Adobe Illustrator 19.0.1, SVG Export Plug-In . SVG Version: 6.00 Build 0)  -->
<svg version="1.0" id="Ebene_1" xmlns="http://www.w3.org/2000/svg" xmlns:xlink="http://www.w3.org/1999/xlink" x="0px" y="0px"
	 width="60px" height="60px" viewBox="0 0 60 60" style="enable-background:new 0 0 60 60;" xml:space="preserve">
<g id="verwaltung">
	<path d="M9.986,41.029c-2.212,0-4.011,1.8-4.011,4.011s1.799,4.011,4.011,4.011s4.011-1.8,4.011-4.011S12.198,41.029,9.986,41.029z
		"/>
	<path d="M26.032,41.029c-2.212,0-4.011,1.8-4.011,4.011s1.799,4.011,4.011,4.011s4.011-1.8,4.011-4.011
		S28.244,41.029,26.032,41.029z"/>
	<path d="M52.071,3.312c-0.167-1.095-1.187-1.843-2.286-1.681l-14.299,2.02C35.137,3.358,34.703,3,34.211,3H18.165H2.12
		C1.012,3,0,4.219,0,5.327v52.149C0,58.585,1.012,59,2.12,59h16.046h16.046C35.319,59,36,58.585,36,57.477V32.39l3.999,25.498
		c0.08,0.527,0.421,0.999,0.85,1.314c0.347,0.255,0.79,0.39,1.215,0.39c0.101,0,0.215-0.008,0.316-0.024l15.87-2.421
		c1.095-0.166,1.85-1.189,1.684-2.284L52.071,3.312z M51.735,27.71l-11.897,1.815l-1.815-11.897l11.897-1.817L51.735,27.71z M32,13
		H20V7h12V13z M20,17h12v12H20V17z M16,29H4V17h12V29z M16,7v6H4V7H16z M4,33h12v22H4V33z M20,55V33h12v22H20z M48.407,5.899
		l0.908,5.948l-11.897,1.817L36.51,7.713L48.407,5.899z M43.771,55.3L40.443,33.49l11.897-1.815l3.328,21.81L43.771,55.3z"/>
	<path d="M52,43.503c0,0,0,0,0-0.002c0-1.06-0.749-1.994-1.614-2.629c-0.863-0.635-1.933-0.891-2.989-0.731
		c-2.186,0.331-3.699,2.382-3.366,4.57c0.162,1.058,0.723,1.992,1.586,2.627c0.696,0.511,1.519,0.78,2.365,0.78
		c0.205,0,0.43-0.016,0.636-0.047C50.803,47.74,52,45.689,52,43.503z"/>
</g>
</svg>
