<?xml version="1.0" encoding="utf-8"?>
<!-- Generator: Adobe Illustrator 19.0.1, SVG Export Plug-In . SVG Version: 6.00 Build 0)  -->
<svg version="1.0" id="Ebene_1" xmlns="http://www.w3.org/2000/svg" xmlns:xlink="http://www.w3.org/1999/xlink" x="0px" y="0px"
	 width="60px" height="60px" viewBox="0 0 60 60" style="enable-background:new 0 0 60 60;" xml:space="preserve">
<g id="infrastruktur">
	<path d="M50,0H10C8.896,0,8,0.919,8,2.023v56C8,59.128,8.896,60,10,60h14h12h14c1.104,0,2-0.872,2-1.977v-56
		C52,0.919,51.104,0,50,0z M34,56h-8V44h8V56z M48,56H38V42.023C38,40.919,37.104,40,36,40H24c-1.104,0-2,0.919-2,2.023V56H12V4h36
		V56z"/>
	<path d="M18,20h8c1.105,0,2-0.895,2-2v-8c0-1.105-0.895-2-2-2h-8c-1.105,0-2,0.895-2,2v8C16,19.105,16.895,20,18,20z M20,12h4v4h-4
		V12z"/>
	<path d="M34,20h8c1.105,0,2-0.895,2-2v-8c0-1.105-0.895-2-2-2h-8c-1.105,0-2,0.895-2,2v8C32,19.105,32.895,20,34,20z M36,12h4v4h-4
		V12z"/>
	<path d="M18,36h8c1.105,0,2-0.895,2-2v-8c0-1.105-0.895-2-2-2h-8c-1.105,0-2,0.895-2,2v8C16,35.105,16.895,36,18,36z M20,28h4v4h-4
		V28z"/>
	<path d="M34,36h8c1.105,0,2-0.895,2-2v-8c0-1.105-0.895-2-2-2h-8c-1.105,0-2,0.895-2,2v8C32,35.105,32.895,36,34,36z M36,28h4v4h-4
		V28z"/>
</g>
</svg>
