<?xml version="1.0" encoding="UTF-8" standalone="no"?>
<svg
   xmlns:dc="http://purl.org/dc/elements/1.1/"
   xmlns:cc="http://creativecommons.org/ns#"
   xmlns:rdf="http://www.w3.org/1999/02/22-rdf-syntax-ns#"
   xmlns:svg="http://www.w3.org/2000/svg"
   xmlns="http://www.w3.org/2000/svg"
   version="1.1"
   id="svg2"
   height="60"
   width="60"
   viewBox="0 0 60 60"
   style="isolation:isolate">
  <path
     d="m 36.67,46 -13.36,0 c -1.105,0 -2,0.895 -2,2 0,1.105 0.895,2 2,2 l 13.36,0 c 1.105,0 2,-0.895 2,-2 0,-1.105 -0.895,-2 -2,-2 z" />
  <path
     d="m 34.39,51 -8.82,0 c -1.105,0 -2,0.895 -2,2 0,1.105 0.895,2 2,2 l 8.82,0 c 1.105,0 2,-0.895 2,-2 0,-1.105 -0.895,-2 -2,-2 z" />
  <path
     d="m 33.23,56 -6.5,0 c -1.105,0 -2,0.895 -2,2 0,1.105 0.895,2 2,2 l 6.5,0 c 1.105,0 2,-0.895 2,-2 0,-1.105 -0.895,-2 -2,-2 z" />
  <path
     d="m 29.99,9.4 c 1.105,0 2,-0.895 2,-2 l 0,-5.4 c 0,-1.105 -0.895,-2 -2,-2 -1.105,0 -2,0.895 -2,2 l 0,5.4 c 0,1.105 0.895,2 2,2 z" />
  <path
     d="m 15.99,14.68 c 0.681,-0.863 0.538,-2.113 -0.32,-2.8 L 11.43,8.52 C 10.563,7.83 9.3,7.973 8.61,8.84 7.92,9.707 8.063,10.97 8.93,11.66 L 13.19,15 c 0.863,0.681 2.113,0.538 2.8,-0.32 z" />
  <path
     d="M 51.27,8.86 C 50.583,8.002 49.333,7.859 48.47,8.54 l -4.24,3.32 c -0.867,0.685 -1.015,1.943 -0.33,2.81 0.685,0.867 1.943,1.015 2.81,0.33 l 4.22,-3.34 c 0.864,-0.681 1.016,-1.932 0.34,-2.8 z" />
  <path
     d="m 10.33,24 -5.4,0 c -1.105,0 -2,0.895 -2,2 0,1.105 0.895,2 2,2 l 5.4,0 c 1.105,0 2,-0.895 2,-2 0,-1.105 -0.895,-2 -2,-2 z" />
  <path
     d="m 55.07,23.7 -5.4,0 c -1.105,0 -2,0.895 -2,2 0,1.105 0.895,2 2,2 l 0,0 5.4,0 c 1.105,0 2,-0.895 2,-2 0,-1.105 -0.895,-2 -2,-2 z" />
  <path
     d="m 30.53,19.46 c 0,-1.105 -0.895,-2 -2,-2 -4.129,-0.257 -7.719,2.803 -8.12,6.92 -0.062,0.528 0.089,1.059 0.419,1.475 0.33,0.417 0.813,0.685 1.341,0.745 l 0.24,0 c 1.017,0.007 1.878,-0.75 2,-1.76 0.23,-2.007 1.983,-3.488 4,-3.38 0.551,0.033 1.091,-0.163 1.492,-0.542 0.402,-0.378 0.629,-0.906 0.628,-1.458 z" />
  <path
     d="m 30.19,10.8 -0.42,0 c -5.315,0.045 -10.326,2.485 -13.64,6.64 -2.175,2.722 -2.919,6.319 -2,9.68 0.826,2.862 2.123,5.566 3.84,8 1.823,2.268 2.818,5.09 2.82,8 0,1.105 0.895,2 2,2 1.105,0 2,-0.895 2,-2 0.003,-3.695 -1.213,-7.287 -3.46,-10.22 -1.512,-2.093 -2.662,-4.426 -3.4,-6.9 -0.555,-2.162 -0.042,-4.459 1.38,-6.18 2.571,-3.14 6.402,-4.979 10.46,-5.02 l 0.42,0 c 4.062,0.044 7.895,1.89 10.46,5.04 1.415,1.716 1.928,4.004 1.38,6.16 -0.723,2.463 -1.851,4.789 -3.34,6.88 -2.247,2.933 -3.463,6.525 -3.46,10.22 0,1.105 0.895,2 2,2 1.105,0 2,-0.895 2,-2 -0.004,-2.908 0.984,-5.729 2.8,-8 1.717,-2.434 3.015,-5.138 3.84,-8 0.919,-3.361 0.175,-6.958 -2,-9.68 -3.327,-4.159 -8.354,-6.591 -13.68,-6.62 z" />
</svg>
