<?xml version="1.0" encoding="UTF-8" standalone="no"?>
<!-- Generator: Gravit.io -->
<svg xmlns="http://www.w3.org/2000/svg" xmlns:xlink="http://www.w3.org/1999/xlink" style="isolation:isolate" viewBox="0 0 60 60" width="60" height="60"><defs><clipPath id="_clipPath_OMPG9TEMMIlMnAhdRxSKvHE7PLOi0xuH"><rect width="60" height="60"/></clipPath></defs><g clip-path="url(#_clipPath_OMPG9TEMMIlMnAhdRxSKvHE7PLOi0xuH)"><g id="Ebene_2-2"><path d=" M 30 12 C 31.105 12 32 11.105 32 10 L 32 8 C 32 6.895 31.105 6 30 6 C 28.895 6 28 6.895 28 8 L 28 10 C 28 11.105 28.895 12 30 12 Z " fill="rgb(0,0,0)"/><path d=" M 30 20 C 31.105 20 32 19.105 32 18 L 32 16 C 32 14.895 31.105 14 30 14 C 28.895 14 28 14.895 28 16 L 28 18 C 28 19.105 28.895 20 30 20 Z " fill="rgb(0,0,0)"/><path d=" M 30 28 C 31.105 28 32 27.105 32 26 L 32 24 C 32 22.895 31.105 22 30 22 C 28.895 22 28 22.895 28 24 L 28 26 C 28 27.105 28.895 28 30 28 Z " fill="rgb(0,0,0)"/><path d=" M 30 36 C 31.105 36 32 35.105 32 34 L 32 32 C 32 30.895 31.105 30 30 30 C 28.895 30 28 30.895 28 32 L 28 34 C 28 35.105 28.895 36 30 36 Z " fill="rgb(0,0,0)"/><path d=" M 30 44 C 31.105 44 32 43.105 32 42 L 32 40 C 32 38.895 31.105 38 30 38 C 28.895 38 28 38.895 28 40 L 28 42 C 28 43.105 28.895 44 30 44 Z " fill="rgb(0,0,0)"/><path d=" M 24 12 C 25.105 12 26 11.105 26 10 L 26 8 C 26 6.895 25.105 6 24 6 C 22.895 6 22 6.895 22 8 L 22 10 C 22 11.105 22.895 12 24 12 Z " fill="rgb(0,0,0)"/><path d=" M 24 20 C 25.105 20 26 19.105 26 18 L 26 16 C 26 14.895 25.105 14 24 14 C 22.895 14 22 14.895 22 16 L 22 18 C 22 19.105 22.895 20 24 20 Z " fill="rgb(0,0,0)"/><path d=" M 24 28 C 25.105 28 26 27.105 26 26 L 26 24 C 26 22.895 25.105 22 24 22 C 22.895 22 22 22.895 22 24 L 22 26 C 22 27.105 22.895 28 24 28 Z " fill="rgb(0,0,0)"/><path d=" M 24 36 C 25.105 36 26 35.105 26 34 L 26 32 C 26 30.895 25.105 30 24 30 C 22.895 30 22 30.895 22 32 L 22 34 C 22 35.105 22.895 36 24 36 Z " fill="rgb(0,0,0)"/><path d=" M 24 44 C 25.105 44 26 43.105 26 42 L 26 40 C 26 38.895 25.105 38 24 38 C 22.895 38 22 38.895 22 40 L 22 42 C 22 43.105 22.895 44 24 44 Z " fill="rgb(0,0,0)"/><path d=" M 36 12 C 37.105 12 38 11.105 38 10 L 38 8 C 38 6.895 37.105 6 36 6 C 34.895 6 34 6.895 34 8 L 34 10 C 34 11.105 34.895 12 36 12 Z " fill="rgb(0,0,0)"/><path d=" M 36 20 C 37.105 20 38 19.105 38 18 L 38 16 C 38 14.895 37.105 14 36 14 C 34.895 14 34 14.895 34 16 L 34 18 C 34 19.105 34.895 20 36 20 Z " fill="rgb(0,0,0)"/><path d=" M 36 28 C 37.105 28 38 27.105 38 26 L 38 24 C 38 22.895 37.105 22 36 22 C 34.895 22 34 22.895 34 24 L 34 26 C 34 27.105 34.895 28 36 28 Z " fill="rgb(0,0,0)"/><path d=" M 36 36 C 37.105 36 38 35.105 38 34 L 38 32 C 38 30.895 37.105 30 36 30 C 34.895 30 34 30.895 34 32 L 34 34 C 34 35.105 34.895 36 36 36 Z " fill="rgb(0,0,0)"/><path d=" M 36 44 C 37.105 44 38 43.105 38 42 L 38 40 C 38 38.895 37.105 38 36 38 C 34.895 38 34 38.895 34 40 L 34 42 C 34 43.105 34.895 44 36 44 Z " fill="rgb(0,0,0)"/><path d=" M 58 10 L 46 10 L 46 2 C 46 0.895 45.105 0 44 0 L 16 0 C 14.895 0 14 0.895 14 2 L 14 10 L 2 10 C 0.895 10 0 10.895 0 12 L 0 58 C 0 59.105 0.895 60 2 60 L 58 60 C 59.105 60 60 59.105 60 58 L 60 12 C 60 10.895 59.105 10 58 10 Z  M 4 14 L 14 14 L 14 56 L 4 56 L 4 14 Z  M 18 4 L 42 4 L 42 56 L 36 56 L 36 50 C 36 48.895 35.105 48 34 48 L 26 48 C 24.895 48 24 48.895 24 50 L 24 56 L 18 56 L 18 4 Z  M 28 56 L 28 52 L 32 52 L 32 56 L 28 56 Z  M 56 56 L 46 56 L 46 14 L 56 14 L 56 56 Z " fill="rgb(0,0,0)"/><path d=" M 50 20 L 52 20 C 53.105 20 54 19.105 54 18 C 54 16.895 53.105 16 52 16 L 50 16 C 48.895 16 48 16.895 48 18 C 48 19.105 48.895 20 50 20 Z " fill="rgb(0,0,0)"/><path d=" M 50 26 L 52 26 C 53.105 26 54 25.105 54 24 C 54 22.895 53.105 22 52 22 L 50 22 C 48.895 22 48 22.895 48 24 C 48 25.105 48.895 26 50 26 Z " fill="rgb(0,0,0)"/><path d=" M 50 32 L 52 32 C 53.105 32 54 31.105 54 30 C 54 28.895 53.105 28 52 28 L 50 28 C 48.895 28 48 28.895 48 30 C 48 31.105 48.895 32 50 32 Z " fill="rgb(0,0,0)"/><path d=" M 50 38 L 52 38 C 53.105 38 54 37.105 54 36 C 54 34.895 53.105 34 52 34 L 50 34 C 48.895 34 48 34.895 48 36 C 48 37.105 48.895 38 50 38 Z " fill="rgb(0,0,0)"/><path d=" M 50 44 L 52 44 C 53.105 44 54 43.105 54 42 C 54 40.895 53.105 40 52 40 L 50 40 C 48.895 40 48 40.895 48 42 C 48 43.105 48.895 44 50 44 Z " fill="rgb(0,0,0)"/><path d=" M 52 46 L 50 46 C 48.895 46 48 46.895 48 48 C 48 49.105 48.895 50 50 50 L 52 50 C 53.105 50 54 49.105 54 48 C 54 46.895 53.105 46 52 46 Z " fill="rgb(0,0,0)"/><path d=" M 8 20 L 10 20 C 11.105 20 12 19.105 12 18 C 12 16.895 11.105 16 10 16 L 8 16 C 6.895 16 6 16.895 6 18 C 6 19.105 6.895 20 8 20 Z " fill="rgb(0,0,0)"/><path d=" M 10 22 L 8 22 C 6.895 22 6 22.895 6 24 C 6 25.105 6.895 26 8 26 L 10 26 C 11.105 26 12 25.105 12 24 C 12 22.895 11.105 22 10 22 Z " fill="rgb(0,0,0)"/><path d=" M 10 28 L 8 28 C 6.895 28 6 28.895 6 30 C 6 31.105 6.895 32 8 32 L 10 32 C 11.105 32 12 31.105 12 30 C 12 28.895 11.105 28 10 28 Z " fill="rgb(0,0,0)"/><path d=" M 10 34 L 8 34 C 6.895 34 6 34.895 6 36 C 6 37.105 6.895 38 8 38 L 10 38 C 11.105 38 12 37.105 12 36 C 12 34.895 11.105 34 10 34 Z " fill="rgb(0,0,0)"/><path d=" M 10 40 L 8 40 C 6.895 40 6 40.895 6 42 C 6 43.105 6.895 44 8 44 L 10 44 C 11.105 44 12 43.105 12 42 C 12 40.895 11.105 40 10 40 Z " fill="rgb(0,0,0)"/><path d=" M 10 46 L 8 46 C 6.895 46 6 46.895 6 48 C 6 49.105 6.895 50 8 50 L 10 50 C 11.105 50 12 49.105 12 48 C 12 46.895 11.105 46 10 46 Z " fill="rgb(0,0,0)"/></g></g></svg>