<?xml version="1.0" encoding="utf-8"?>
<!-- Generator: Adobe Illustrator 19.2.1, SVG Export Plug-In . SVG Version: 6.00 Build 0)  -->
<svg version="1.1" id="Ebene_1" xmlns="http://www.w3.org/2000/svg" xmlns:xlink="http://www.w3.org/1999/xlink" x="0px" y="0px"
	 width="30px" height="30px" viewBox="0 0 30 30" style="enable-background:new 0 0 30 30;" xml:space="preserve">
<g>
	<g>
		<path d="M28.9,28H1.1c-0.4,0-0.7-0.2-0.9-0.5c-0.2-0.3-0.2-0.7,0-1.1L14.1,2.3c0.4-0.7,1.5-0.7,1.9,0l13.9,24.1
			c0.2,0.3,0.2,0.7,0,1.1C29.7,27.8,29.3,28,28.9,28z M2.9,25.9h24.1L15,5L2.9,25.9z"/>
	</g>
</g>
<g>
	<path d="M15,19.1c-0.6,0-1-0.4-1-1v-6.2c0-0.6,0.4-1,1-1s1,0.4,1,1v6.2C16,18.7,15.6,19.1,15,19.1z"/>
</g>
<g>
	<path d="M15,23.7c-0.6,0-1-0.4-1-1v-1c0-0.6,0.4-1,1-1s1,0.4,1,1v1C16,23.2,15.6,23.7,15,23.7z"/>
</g>
</svg>
