<?xml version="1.0" encoding="utf-8"?>
<!-- Generator: Adobe Illustrator 19.0.1, SVG Export Plug-In . SVG Version: 6.00 Build 0)  -->
<svg version="1.0" id="Ebene_1" xmlns="http://www.w3.org/2000/svg" xmlns:xlink="http://www.w3.org/1999/xlink" x="0px" y="0px"
	 width="60px" height="60px" viewBox="0 0 60 60" style="enable-background:new 0 0 60 60;" xml:space="preserve">
<g id="rss" style="fill:#ffffff">
	<path d="M2,0C0.895,0,0,0.896,0,2s0.895,2,2,2c29.775,0,54,24.225,54,54c0,1.104,0.895,2,2,2s2-0.896,2-2C60,26.019,33.98,0,2,0z"
		/>
	<path d="M2,16c-1.105,0-2,0.896-2,2s0.895,2,2,2c20.953,0,38,17.047,38,38c0,1.104,0.895,2,2,2s2-0.896,2-2
		C44,34.841,25.158,16,2,16z"/>
	<path d="M2,32c-1.105,0-2,0.896-2,2s0.895,2,2,2c12.131,0,22,9.869,22,22c0,1.104,0.895,2,2,2s2-0.896,2-2
		C28,43.663,16.336,32,2,32z"/>
</g>
</svg>
